<?xml version="1.0" encoding="UTF-8"?>
<!DOCTYPE svg PUBLIC "-//W3C//DTD SVG 1.1//EN" "http://www.w3.org/Graphics/SVG/1.1/DTD/svg11.dtd">
<!-- Creator: CorelDRAW 2019 (64-Bit) -->
<svg xmlns="http://www.w3.org/2000/svg" xml:space="preserve" width="350px" height="350px" version="1.1" style="shape-rendering:geometricPrecision; text-rendering:geometricPrecision; image-rendering:optimizeQuality; fill-rule:evenodd; clip-rule:evenodd"
viewBox="0 0 216.82 216.82"
 xmlns:xlink="http://www.w3.org/1999/xlink"
 xmlns:xodm="http://www.corel.com/coreldraw/odm/2003">
 <defs>
  <style type="text/css">
   <![CDATA[
    .fil0 {fill:#CC0C39;fill-rule:nonzero}
   ]]>
  </style>
 </defs>
 <g id="Layer_x0020_1">
  <metadata id="CorelCorpID_0Corel-Layer"/>
  <path class="fil0" d="M108.41 31c-21.38,0 -40.73,8.67 -54.74,22.67 -14,14.01 -22.67,33.36 -22.67,54.74 0,21.38 8.67,40.73 22.67,54.74 14.01,14 33.36,22.67 54.74,22.67 21.38,0 40.73,-8.67 54.74,-22.67 14,-14.01 22.67,-33.36 22.67,-54.74 0,-21.38 -8.67,-40.73 -22.67,-54.74 -14.01,-14 -33.36,-22.67 -54.74,-22.67zm-76.66 0.75c19.62,-19.61 46.73,-31.75 76.66,-31.75 29.94,0 57.04,12.14 76.66,31.75 19.62,19.62 31.75,46.73 31.75,76.66 0,29.94 -12.13,57.04 -31.75,76.66 -19.62,19.62 -46.72,31.75 -76.66,31.75 -29.93,0 -57.04,-12.13 -76.66,-31.75 -19.61,-19.62 -31.75,-46.72 -31.75,-76.66 0,-29.93 12.14,-57.04 31.75,-76.66z"/>
 </g>
</svg>
