<?xml version="1.0" encoding="utf-8"?>
<!-- Generator: Adobe Illustrator 22.0.1, SVG Export Plug-In . SVG Version: 6.00 Build 0)  -->
<svg version="1.1" id="Capa_1" xmlns="http://www.w3.org/2000/svg" xmlns:xlink="http://www.w3.org/1999/xlink" x="0px" y="0px"
	 viewBox="0 0 512 512" style="enable-background:new 0 0 512 512;" xml:space="preserve">
<g>
	<g>
		<path d="M24.7,276.6h466.7c11.4,0,20.6-9.2,20.6-20.6c0-11.4-9.2-20.6-20.6-20.6H24.7c-11.4,0-20.6,9.2-20.6,20.6
			C4.1,267.4,13.3,276.6,24.7,276.6z"/>
	</g>
</g>
<g>
	<g>
		<path d="M6,270.6l201.8,201.8c8,8,21.1,8,29.1,0c8-8,8-21.1,0-29.1L49.7,256L236.9,68.8c8-8,8-21.1,0-29.1c-4-4-9.3-6-14.6-6
			s-10.5,2-14.6,6L6,241.4C-2,249.5-2,262.5,6,270.6z"/>
	</g>
</g>
</svg>
