<?xml version="1.0" encoding="utf-8"?>
<!-- Generator: Adobe Illustrator 22.0.1, SVG Export Plug-In . SVG Version: 6.00 Build 0)  -->
<svg version="1.1" id="Layer_1" xmlns="http://www.w3.org/2000/svg" xmlns:xlink="http://www.w3.org/1999/xlink" x="0px" y="0px"
	 viewBox="0 0 80 80" style="enable-background:new 0 0 80 80;" xml:space="preserve">
<g>
	<g>
		<g>
			<path d="M37.2,25.7c-6,0-10.9,4.9-10.9,10.9c0,6,4.9,10.9,10.9,10.9c6,0,10.9-4.9,10.9-10.9C48.1,30.6,43.2,25.7,37.2,25.7z
				 M42.5,39.2h-3.2v3.2c0,1.1-0.9,2.1-2.1,2.1c-1.1,0-2.1-0.9-2.1-2.1v-3.2h-3.2c-1.1,0-2.1-0.9-2.1-2.1c0-1.1,0.9-2.1,2.1-2.1h3.2
				v-3.2c0-1.1,0.9-2.1,2.1-2.1c1.1,0,2.1,0.9,2.1,2.1V35h3.2c1.1,0,2.1,0.9,2.1,2.1C44.5,38.3,43.6,39.2,42.5,39.2z"/>
			<path d="M40,0C17.9,0,0,17.9,0,40s17.9,40,40,40s40-17.9,40-40S62.1,0,40,0z M60.1,59c-0.6,0.6-1.5,0.9-2.3,0.9s-1.7-0.3-2.3-0.9
				l-9.1-9.1c-2.6,1.8-5.8,2.9-9.3,2.9c-8.9,0-16.2-7.3-16.2-16.2s7.3-16.2,16.2-16.2s16.2,7.3,16.2,16.2c0,3.2-0.9,6.1-2.5,8.6
				l9.2,9.2C61.4,55.7,61.4,57.7,60.1,59z"/>
		</g>
	</g>
</g>
</svg>
