<?xml version="1.0" encoding="UTF-8"?>
<!DOCTYPE svg PUBLIC "-//W3C//DTD SVG 1.1//EN" "http://www.w3.org/Graphics/SVG/1.1/DTD/svg11.dtd">
<!-- Creator: CorelDRAW 2019 (64-Bit) -->
<svg xmlns="http://www.w3.org/2000/svg" xml:space="preserve" width="204px" height="222px" version="1.1" style="shape-rendering:geometricPrecision; text-rendering:geometricPrecision; image-rendering:optimizeQuality; fill-rule:evenodd; clip-rule:evenodd"
viewBox="0 0 79.5 86.5"
 xmlns:xlink="http://www.w3.org/1999/xlink"
 xmlns:xodm="http://www.corel.com/coreldraw/odm/2003">
 <defs>
  <style type="text/css">
   <![CDATA[
    .fil1 {fill:black;fill-rule:nonzero}
    .fil0 {fill:white;fill-rule:nonzero}
   ]]>
  </style>
 </defs>
 <g id="Layer_x0020_1">
  <metadata id="CorelCorpID_0Corel-Layer"/>
  <path class="fil0" d="M34.12 4.93c2.38,-2.31 6.18,-2.71 9.15,-1.38 3.37,1.71 5.48,5.95 4.25,9.62 -0.45,1.79 -1.68,3.23 -2.87,4.58 6.58,2.46 13.24,6.53 16.08,13.26 1.4,2.98 1.3,6.31 1.11,9.53 -0.82,4.57 -2.95,8.79 -5.46,12.66 -0.12,3.26 1.78,6.6 0.64,9.82 -2.34,1.64 -5.43,1.56 -8.02,2.64 4.79,2.02 10.06,2.79 15.23,2.74 3.85,0.34 8.03,1.05 10.92,3.83 0.87,1.15 2.16,2.66 1.15,4.1 -1.29,2.3 -3.08,4.31 -4.79,6.31 -0.76,1.02 -2.27,0.74 -3.24,0.19 -2.38,-1.31 -5.13,-1.5 -7.76,-1.88 -4.9,-0.06 -9.81,-0.54 -14.57,-1.75 -2.42,-0.57 -4.65,-1.7 -6.69,-3.1 -3.46,2.22 -7.52,3.19 -11.5,4 -2.59,0.68 -5.29,0.1 -7.92,0.45 -2.54,0.38 -5.17,0.32 -7.6,1.25 -1.42,0.33 -1.83,2.3 -3.53,1.95 -2.01,-1.98 -3.39,-4.45 -5.14,-6.64 -1.01,-1.13 -0.92,-2.9 -0.17,-4.14 1.36,-2.61 4.22,-4.11 7.04,-4.55 2.62,-0.18 5.23,-0.59 7.86,-0.51 1.55,0.06 3.11,-0.03 4.64,-0.34 2.65,-0.25 5.34,-0.68 7.74,-1.91 -2.69,-0.79 -5.51,-1.27 -8.02,-2.56 -0.61,-0.35 -1.33,-0.89 -1.11,-1.7 0.55,-2.77 1.33,-5.51 1.88,-8.27 -0.19,-0.56 -0.61,-1 -0.93,-1.47 -3.49,-4.26 -6.07,-9.64 -5.75,-15.27 0.04,-4.03 2.03,-7.83 4.84,-10.64 3.58,-3.73 8.28,-6.11 13,-8.07 -0.96,-1.19 -2.04,-2.32 -2.63,-3.74 -1.08,-3.08 -0.4,-6.87 2.17,-9.01zm4.31 2.01l0 0c-1.58,0.45 -2.73,1.91 -3,3.5 -0.1,2.24 1.75,4.66 4.17,4.35 2.42,0.11 4.42,-2.48 3.76,-4.81 -0.22,-2.27 -2.85,-3.6 -4.93,-3.04zm0.45 12.98l0 0c-4.7,1.57 -9.28,3.67 -13.21,6.71 -3.43,2.79 -5.85,7.1 -5.51,11.61 0.66,4.54 2.82,8.8 5.86,12.2 0.76,0.95 2.02,1.18 3.12,1.5 7.97,2.05 16.42,1.31 24.29,-0.83 2.63,-3.63 4.55,-7.92 5.06,-12.41 0.31,-2.95 -0.65,-5.91 -2.11,-8.46 -3.35,-4.92 -8.87,-7.81 -14.37,-9.7 -1.03,-0.24 -2.07,-0.79 -3.13,-0.62zm-11.82 33.48l0 0c-0.43,1.33 -0.75,2.68 -0.98,4.05 8.88,-2.15 18.49,-2.88 27.22,0.31 -0.14,-1.45 -0.32,-2.9 -0.76,-4.3 -8.3,2.03 -17.25,2.55 -25.48,-0.06zm3.77 6.66l0 0c-1.17,0.31 -2.45,0.38 -3.46,1.1 5.47,1.49 11.19,2.03 16.84,1.5 2.57,-0.39 5.25,-0.52 7.63,-1.68 -6.72,-2.39 -14.09,-2.33 -21.01,-0.92zm4.37 6.64l0 0c-2.25,2.37 -5.49,3.36 -8.62,3.94 -4.28,0.69 -8.62,1.11 -12.96,0.98 -2.68,0.12 -5.82,0.74 -7.31,3.22 1.02,1.43 2.05,2.86 3.12,4.25 5.75,-2.61 12.26,-1.73 18.36,-2.54 2.67,-0.6 5.31,-1.35 7.82,-2.43 1.4,-0.6 2.24,-1.93 3.21,-3.03 2.11,-0.32 2.22,2.41 3.85,3.05 3.48,1.97 7.53,2.33 11.41,2.94 5.23,0.33 10.69,0.28 15.61,2.38 1.13,-1.51 2.33,-2.97 3.3,-4.6 -2.2,-1.82 -5.06,-2.54 -7.84,-2.76 -2.64,-0.04 -5.25,-0.4 -7.87,-0.55 -5.06,-0.88 -10.12,-2.31 -14.52,-5.02 -1.8,-0.35 -3.63,-0.1 -5.44,-0.23 -0.72,0.03 -1.61,-0.27 -2.12,0.4z"/>
  <path class="fil0" d="M39.36 26.39c0.76,-0.53 1.57,0.29 2.08,0.82 0.18,1.32 0.13,2.66 0.19,3.99 1.31,0.17 2.85,-0.28 3.91,0.73 0.24,0.63 0.2,1.34 0.09,2.01 -0.92,1.34 -2.66,1.02 -4.06,1.1 -0.05,1.49 0.05,2.99 -0.13,4.47 -0.78,1 -2.46,1.2 -3.15,0.02 -0.47,-1.46 -0.37,-3.02 -0.31,-4.53 -1.77,0.2 -3.75,-0.03 -4.57,-1.83 0.38,-0.61 0.64,-1.34 1.24,-1.77 1.05,-0.2 2.11,-0.13 3.17,-0.17 0.25,-1.62 -0.49,-4.16 1.54,-4.84z"/>
  <path class="fil1" d="M29.64 6.43c2.31,-5.76 10.04,-8.16 15.33,-5.07 3.51,1.77 5.53,5.69 5.7,9.52 -0.06,2.02 -0.69,3.96 -1.43,5.82 5.85,2.59 11.16,6.97 13.89,12.85 1.73,3.55 1.79,7.58 1.45,11.44 -0.85,4.7 -2.89,9.09 -5.44,13.1 0.61,3.73 2.09,7.93 -0.25,11.38 5.18,0.15 10.64,0.14 15.34,2.63 2.65,1.5 5.02,4.05 5.27,7.21 -0.43,2.78 -2.49,4.89 -4.09,7.08 -1.35,1.62 -2.77,3.91 -5.19,3.65 -1.47,0.21 -2.74,-0.54 -4.01,-1.16 -3.89,-1.5 -8.13,-0.95 -12.18,-1.54 -5.13,-0.43 -10.36,-1.35 -14.9,-3.92 -3.95,1.89 -8.22,3.02 -12.54,3.71 -2.29,0.26 -4.61,-0.12 -6.89,0.24 -2.09,0.35 -4.26,0.2 -6.28,0.93 -0.84,0.59 -1.46,1.49 -2.45,1.83 -1.71,0.82 -3.87,0.21 -5.05,-1.24 -1.47,-1.78 -2.81,-3.67 -4.17,-5.53 -0.71,-1 -1.52,-2.01 -1.73,-3.25 -0.27,-3.76 2.21,-7.27 5.49,-8.91 4.54,-2.37 9.83,-1.87 14.77,-2.07 -0.88,-1.32 -1.9,-2.86 -1.45,-4.53 0.56,-2.31 1.1,-4.62 1.62,-6.94 -3.34,-4.34 -6.17,-9.39 -6.46,-14.98 -0.65,-5.74 1.96,-11.45 6.04,-15.4 2.93,-2.7 6.3,-4.92 9.94,-6.56 -1.29,-3.25 -1.96,-7.02 -0.33,-10.29zm4.48 -1.5l0 0c-2.57,2.14 -3.25,5.93 -2.17,9.01 0.59,1.42 1.67,2.55 2.63,3.74 -4.72,1.96 -9.42,4.34 -13,8.07 -2.81,2.81 -4.8,6.61 -4.84,10.64 -0.32,5.63 2.26,11.01 5.75,15.27 0.32,0.47 0.74,0.91 0.93,1.47 -0.55,2.76 -1.33,5.5 -1.88,8.27 -0.22,0.81 0.5,1.35 1.11,1.7 2.51,1.29 5.33,1.77 8.02,2.56 -2.4,1.23 -5.09,1.66 -7.74,1.91 -1.53,0.31 -3.09,0.4 -4.64,0.34 -2.63,-0.08 -5.24,0.33 -7.86,0.51 -2.82,0.44 -5.68,1.94 -7.04,4.55 -0.75,1.24 -0.84,3.01 0.17,4.14 1.75,2.19 3.13,4.66 5.14,6.64 1.7,0.35 2.11,-1.62 3.53,-1.95 2.43,-0.93 5.06,-0.87 7.6,-1.25 2.63,-0.35 5.33,0.23 7.92,-0.45 3.98,-0.81 8.04,-1.78 11.5,-4 2.04,1.4 4.27,2.53 6.69,3.1 4.76,1.21 9.67,1.69 14.57,1.75 2.63,0.38 5.38,0.57 7.76,1.88 0.97,0.55 2.48,0.83 3.24,-0.19 1.71,-2 3.5,-4.01 4.79,-6.31 1.01,-1.44 -0.28,-2.95 -1.15,-4.1 -2.89,-2.78 -7.07,-3.49 -10.92,-3.83 -5.17,0.05 -10.44,-0.72 -15.23,-2.74 2.59,-1.08 5.68,-1 8.02,-2.64 1.14,-3.22 -0.76,-6.56 -0.64,-9.82 2.51,-3.87 4.64,-8.09 5.46,-12.66 0.19,-3.22 0.29,-6.55 -1.11,-9.53 -2.84,-6.73 -9.5,-10.8 -16.08,-13.26 1.19,-1.35 2.42,-2.79 2.87,-4.58 1.23,-3.67 -0.88,-7.91 -4.25,-9.62 -2.97,-1.33 -6.77,-0.93 -9.15,1.38z"/>
  <path class="fil1" d="M38.43 6.94c2.08,-0.56 4.71,0.77 4.93,3.04 0.66,2.33 -1.34,4.92 -3.76,4.81 -2.42,0.31 -4.27,-2.11 -4.17,-4.35 0.27,-1.59 1.42,-3.05 3,-3.5z"/>
  <path class="fil1" d="M38.88 19.92c1.06,-0.17 2.1,0.38 3.13,0.62 5.5,1.89 11.02,4.78 14.37,9.7 1.46,2.55 2.42,5.51 2.11,8.46 -0.51,4.49 -2.43,8.78 -5.06,12.41 -7.87,2.14 -16.32,2.88 -24.29,0.83 -1.1,-0.32 -2.36,-0.55 -3.12,-1.5 -3.04,-3.4 -5.2,-7.66 -5.86,-12.2 -0.34,-4.51 2.08,-8.82 5.51,-11.61 3.93,-3.04 8.51,-5.14 13.21,-6.71zm0.48 6.47l0 0c-2.03,0.68 -1.29,3.22 -1.54,4.84 -1.06,0.04 -2.12,-0.03 -3.17,0.17 -0.6,0.43 -0.86,1.16 -1.24,1.77 0.82,1.8 2.8,2.03 4.57,1.83 -0.06,1.51 -0.16,3.07 0.31,4.53 0.69,1.18 2.37,0.98 3.15,-0.02 0.18,-1.48 0.08,-2.98 0.13,-4.47 1.4,-0.08 3.14,0.24 4.06,-1.1 0.11,-0.67 0.15,-1.38 -0.09,-2.01 -1.06,-1.01 -2.6,-0.56 -3.91,-0.73 -0.06,-1.33 -0.01,-2.67 -0.19,-3.99 -0.51,-0.53 -1.32,-1.35 -2.08,-0.82z"/>
  <path class="fil1" d="M27.06 53.4c8.23,2.61 17.18,2.09 25.48,0.06 0.44,1.4 0.62,2.85 0.76,4.3 -8.73,-3.19 -18.34,-2.46 -27.22,-0.31 0.23,-1.37 0.55,-2.72 0.98,-4.05z"/>
  <path class="fil1" d="M30.83 60.06c6.92,-1.41 14.29,-1.47 21.01,0.92 -2.38,1.16 -5.06,1.29 -7.63,1.68 -5.65,0.53 -11.37,-0.01 -16.84,-1.5 1.01,-0.72 2.29,-0.79 3.46,-1.1z"/>
  <path class="fil1" d="M35.2 66.7c0.51,-0.67 1.4,-0.37 2.12,-0.4 1.81,0.13 3.64,-0.12 5.44,0.23 4.4,2.71 9.46,4.14 14.52,5.02 2.62,0.15 5.23,0.51 7.87,0.55 2.78,0.22 5.64,0.94 7.84,2.76 -0.97,1.63 -2.17,3.09 -3.3,4.6 -4.92,-2.1 -10.38,-2.05 -15.61,-2.38 -3.88,-0.61 -7.93,-0.97 -11.41,-2.94 -1.63,-0.64 -1.74,-3.37 -3.85,-3.05 -0.97,1.1 -1.81,2.43 -3.21,3.03 -2.51,1.08 -5.15,1.83 -7.82,2.43 -6.1,0.81 -12.61,-0.07 -18.36,2.54 -1.07,-1.39 -2.1,-2.82 -3.12,-4.25 1.49,-2.48 4.63,-3.1 7.31,-3.22 4.34,0.13 8.68,-0.29 12.96,-0.98 3.13,-0.58 6.37,-1.57 8.62,-3.94z"/>
 </g>
</svg>
