<?xml version="1.0" encoding="UTF-8"?>
<!DOCTYPE svg PUBLIC "-//W3C//DTD SVG 1.1//EN" "http://www.w3.org/Graphics/SVG/1.1/DTD/svg11.dtd">
<!-- Creator: CorelDRAW 2019 (64-Bit) -->
<svg xmlns="http://www.w3.org/2000/svg" xml:space="preserve" width="191px" height="209px" version="1.1" style="shape-rendering:geometricPrecision; text-rendering:geometricPrecision; image-rendering:optimizeQuality; fill-rule:evenodd; clip-rule:evenodd"
viewBox="0 0 71.25 78"
 xmlns:xlink="http://www.w3.org/1999/xlink"
 xmlns:xodm="http://www.corel.com/coreldraw/odm/2003">
 <defs>
  <style type="text/css">
   <![CDATA[
    .fil1 {fill:black;fill-rule:nonzero}
    .fil0 {fill:white;fill-rule:nonzero}
   ]]>
  </style>
 </defs>
 <g id="Layer_x0020_1">
  <metadata id="CorelCorpID_0Corel-Layer"/>
  <path class="fil0" d="M34.42 4.2c2.22,-0.68 4.73,1.22 4.77,3.51 0.3,2.47 -2.68,4.59 -4.95,3.6 -1.63,-0.55 -2.59,-2.3 -2.45,-3.97 0.18,-1.47 1.35,-2.55 2.63,-3.14z"/>
  <path class="fil0" d="M23.25 22.47c3.6,-2.64 7.73,-4.48 11.96,-5.89 3.54,0.77 6.92,2.29 10.03,4.14 3.69,2.2 6.96,5.55 8.01,9.81 1.18,5.66 -1.32,11.21 -4.42,15.8 -3.02,0.86 -6.13,1.38 -9.23,1.83 -5.16,0.15 -10.47,0.34 -15.4,-1.46 -1.7,-0.54 -2.56,-2.25 -3.58,-3.57 -2.4,-3.67 -4.29,-8.22 -3.16,-12.64 0.86,-3.25 3,-6.15 5.79,-8.02zm11.23 0.52l0 0c-1.05,1.16 -0.53,2.85 -0.65,4.27 -0.87,0 -1.74,-0.04 -2.6,0.06 -1.37,0.25 -1.89,2.13 -1.04,3.17 1.06,0.69 2.4,0.69 3.63,0.76 0.02,1.29 -0.07,2.59 0.12,3.88 0.36,1 1.52,1.31 2.49,1.12 2.07,-0.8 1.09,-3.39 1.35,-5.07 1.6,0.17 3.9,-0.1 4.03,-2.14 -0.25,-2.02 -2.52,-1.86 -4.04,-1.79 -0.16,-1.39 0.44,-3.09 -0.65,-4.21 -0.77,-0.68 -1.83,-0.62 -2.64,-0.05z"/>
  <path class="fil0" d="M23.66 48.98c3.71,1.04 7.53,1.61 11.39,1.64 -4.14,0.04 -8.19,0.91 -12.22,1.75 0.23,-1.15 0.48,-2.28 0.83,-3.39z"/>
  <path class="fil0" d="M36.04 50.65c4.02,-0.16 8,-0.8 11.93,-1.66 0.26,1.22 0.53,2.45 0.7,3.7 -1.77,-0.64 -3.6,-1.09 -5.45,-1.46 -2.35,-0.6 -4.79,-0.31 -7.18,-0.58z"/>
  <path class="fil0" d="M24.22 56.02c5.11,-1.67 10.53,-1.78 15.85,-1.56 2.33,0.37 4.69,0.69 6.88,1.6 -2.36,0.88 -4.86,1.06 -7.32,1.41 -5.17,0.29 -10.42,0.05 -15.41,-1.45z"/>
  <path class="fil0" d="M31.81 61.29c2.15,-0.28 4.5,-0.17 6.68,0.13 5.46,3.19 11.78,4.93 18.09,5.14 3.62,0.39 7.73,0.06 10.65,2.68 -0.07,1.74 -2.07,2.77 -2.79,4.32 -4.94,-2.18 -10.44,-1.8 -15.68,-2.41 -3.59,-0.5 -7.37,-0.93 -10.5,-2.9 -1.23,-0.58 -1.17,-2.57 -2.68,-2.71 -1.74,-0.07 -2.11,2.1 -3.51,2.72 -5.26,2.55 -11.2,3.08 -16.97,3.08 -2.87,0.24 -5.8,0.6 -8.43,1.83 -0.89,-1.23 -1.87,-2.39 -2.72,-3.65 0.48,-2.08 3.15,-2.68 5.01,-3.05 3.81,-0.01 7.61,-0.27 11.4,-0.65 4.06,-0.58 8.59,-1.28 11.45,-4.53z"/>
  <path class="fil1" d="M27.58 8.13c-0.19,-3.73 2.66,-7.22 6.27,-7.99 1.84,-0.27 3.82,-0.21 5.49,0.71 2.88,1.32 4.54,4.63 4.29,7.73 -0.05,2.27 -1.46,4.22 -2.93,5.84 5.39,1.95 10.52,5.18 13.85,9.93 2.25,3.45 3.25,7.79 2.48,11.86 -0.63,4.5 -2.74,8.64 -5.24,12.39 0.33,2.4 0.74,4.78 1.12,7.17 0.16,1.11 -0.25,2.57 -1.47,2.88 -2.14,0.75 -4.35,1.29 -6.57,1.74 4.24,1.79 8.89,2.53 13.48,2.52 3.87,0.35 8.15,0.71 11.17,3.44 1.33,1.17 2.44,3.31 1.16,4.92 -1.56,2.13 -2.96,4.46 -4.99,6.2 -1.84,0.61 -3.31,-1.02 -5.04,-1.33 -3.21,-0.98 -6.58,-0.63 -9.86,-1.17 -5.37,-0.34 -11.03,-1.09 -15.53,-4.28 -3.53,2.17 -7.62,3.11 -11.63,3.89 -2.77,0.62 -5.62,0.09 -8.42,0.43 -2.21,0.35 -4.53,0.34 -6.56,1.39 -0.75,0.62 -1.56,2 -2.68,1.49 -1.74,-1.27 -2.73,-3.25 -4.05,-4.9 -0.62,-1.03 -1.61,-1.88 -1.92,-3.06 0.2,-2.54 1.97,-4.83 4.3,-5.86 2.62,-1.45 5.69,-1.29 8.59,-1.52 4.63,-0.1 9.42,-0.19 13.75,-2.05 -2.86,-0.83 -5.98,-1.23 -8.42,-3.06 -0.06,-3.11 1.19,-6.05 1.7,-9.08 -3.55,-4.36 -6.49,-9.55 -6.57,-15.31 0.11,-4.92 2.73,-9.56 6.54,-12.59 3.1,-2.69 6.85,-4.41 10.52,-6.15 -1.51,-1.72 -2.92,-3.79 -2.83,-6.18zm6.84 -3.93l0 0c-1.28,0.59 -2.45,1.67 -2.63,3.14 -0.14,1.67 0.82,3.42 2.45,3.97 2.27,0.99 5.25,-1.13 4.95,-3.6 -0.04,-2.29 -2.55,-4.19 -4.77,-3.51zm-11.17 18.27l0 0c-2.79,1.87 -4.93,4.77 -5.79,8.02 -1.13,4.42 0.76,8.97 3.16,12.64 1.02,1.32 1.88,3.03 3.58,3.57 4.93,1.8 10.24,1.61 15.4,1.46 3.1,-0.45 6.21,-0.97 9.23,-1.83 3.1,-4.59 5.6,-10.14 4.42,-15.8 -1.05,-4.26 -4.32,-7.61 -8.01,-9.81 -3.11,-1.85 -6.49,-3.37 -10.03,-4.14 -4.23,1.41 -8.36,3.25 -11.96,5.89zm0.41 26.51l0 0c-0.35,1.11 -0.6,2.24 -0.83,3.39 4.03,-0.84 8.08,-1.71 12.22,-1.75 -3.86,-0.03 -7.68,-0.6 -11.39,-1.64zm12.38 1.67l0 0c2.39,0.27 4.83,-0.02 7.18,0.58 1.85,0.37 3.68,0.82 5.45,1.46 -0.17,-1.25 -0.44,-2.48 -0.7,-3.7 -3.93,0.86 -7.91,1.5 -11.93,1.66zm-11.82 5.37l0 0c4.99,1.5 10.24,1.74 15.41,1.45 2.46,-0.35 4.96,-0.53 7.32,-1.41 -2.19,-0.91 -4.55,-1.23 -6.88,-1.6 -5.32,-0.22 -10.74,-0.11 -15.85,1.56zm7.59 5.27l0 0c-2.86,3.25 -7.39,3.95 -11.45,4.53 -3.79,0.38 -7.59,0.64 -11.4,0.65 -1.86,0.37 -4.53,0.97 -5.01,3.05 0.85,1.26 1.83,2.42 2.72,3.65 2.63,-1.23 5.56,-1.59 8.43,-1.83 5.77,0 11.71,-0.53 16.97,-3.08 1.4,-0.62 1.77,-2.79 3.51,-2.72 1.51,0.14 1.45,2.13 2.68,2.71 3.13,1.97 6.91,2.4 10.5,2.9 5.24,0.61 10.74,0.23 15.68,2.41 0.72,-1.55 2.72,-2.58 2.79,-4.32 -2.92,-2.62 -7.03,-2.29 -10.65,-2.68 -6.31,-0.21 -12.63,-1.95 -18.09,-5.14 -2.18,-0.3 -4.53,-0.41 -6.68,-0.13z"/>
  <path class="fil1" d="M34.48 22.99c0.81,-0.57 1.87,-0.63 2.64,0.05 1.09,1.12 0.49,2.82 0.65,4.21 1.52,-0.07 3.79,-0.23 4.04,1.79 -0.13,2.04 -2.43,2.31 -4.03,2.14 -0.26,1.68 0.72,4.27 -1.35,5.07 -0.97,0.19 -2.13,-0.12 -2.49,-1.12 -0.19,-1.29 -0.1,-2.59 -0.12,-3.88 -1.23,-0.07 -2.57,-0.07 -3.63,-0.76 -0.85,-1.04 -0.33,-2.92 1.04,-3.17 0.86,-0.1 1.73,-0.06 2.6,-0.06 0.12,-1.42 -0.4,-3.11 0.65,-4.27z"/>
 </g>
</svg>
