<?xml version="1.0" encoding="UTF-8"?>
<!DOCTYPE svg PUBLIC "-//W3C//DTD SVG 1.1//EN" "http://www.w3.org/Graphics/SVG/1.1/DTD/svg11.dtd">
<!-- Creator: CorelDRAW 2019 (64-Bit) -->
<svg xmlns="http://www.w3.org/2000/svg" xml:space="preserve" width="197px" height="219px" version="1.1" style="shape-rendering:geometricPrecision; text-rendering:geometricPrecision; image-rendering:optimizeQuality; fill-rule:evenodd; clip-rule:evenodd"
viewBox="0 0 3990.83 4430.52"
 xmlns:xlink="http://www.w3.org/1999/xlink"
 xmlns:xodm="http://www.corel.com/coreldraw/odm/2003">
 <defs>
  <style type="text/css">
   <![CDATA[
    .fil1 {fill:black;fill-rule:nonzero}
    .fil0 {fill:white;fill-rule:nonzero}
   ]]>
  </style>
 </defs>
 <g id="Layer_x0020_1">
  <metadata id="CorelCorpID_0Corel-Layer"/>
  <path class="fil0" d="M1631.55 279.1c-17.59,-70.88 58.83,-118.84 115.21,-141.97 133.55,48.43 250.22,132.09 353.13,228.72 50.61,56.18 88.24,122.71 135.48,182.01 309.97,-11.34 656.1,99.29 817.6,383 258.14,480.87 342.03,1032.12 382.78,1569.41 -1.69,153.55 5.54,306.84 9.15,460.39 0,62.9 -27,141.02 -97.86,150.9 -199.1,53.5 -420.38,96.4 -560.89,262.24 49.89,103.4 24.82,219.83 33.49,330.22 301.3,7.97 603.08,-0.48 904.62,4.1 46.05,6.76 108.24,20.48 118.84,74.96 7.23,150.16 -0.48,301.07 2.65,451.47 -32.54,31.58 -73.77,54.71 -120.27,50.87 -1117,0.95 -2233.97,-0.24 -3350.94,0.48 -74,-0.96 -152.35,10.36 -219.84,-27.48 -15.19,-151.14 -13.01,-303.71 -2.65,-455.09 -4.32,-56.39 46.53,-101.96 101.96,-96.16 307.1,-0.48 614.18,0.24 921.26,0 -6.52,-114.26 -16.64,-233.34 34.71,-339.64 -94.01,-166.57 -210.92,-319.38 -300.35,-488.59 -26.73,-58.32 16.88,-111.34 67.01,-137.15 207.29,-125.09 404.48,-265.61 592.48,-417.97 107.5,-93.99 208.51,-196.43 284.67,-317.92 -124.62,29.89 -238.61,93.28 -364.45,119.8 -183.92,53.74 -382.52,35.67 -560.9,112.32 -86.77,24.11 -167.75,116.67 -262.74,69.66 -80.5,-63.88 -138.82,-151.14 -218.13,-216.69 -58.32,-61.95 -134.5,-114.26 -166.56,-195.24 -46.27,-121.96 11.82,-264.44 115.95,-336.99 386.15,-315.74 795.66,-601.62 1191.69,-904.38 84.37,-105.09 72.31,-251.88 42.9,-375.28zm209.94 113.99l0 0c-14.44,115.24 -12.03,239.11 -78.56,339.88 -49.9,78.33 -136.92,120.27 -207.53,176.69 -336.49,249.71 -669.85,503.05 -1004.44,755.17 -49.63,46.03 -144.86,115.93 -83.86,189.22 83.15,95.44 182.94,175.47 270.93,266.59 153.29,-86.54 329.98,-118.6 502.32,-142.21 242.74,-12.54 467.38,-117.39 683.1,-221.04 67.25,-29.41 140.54,25.54 145.36,95.2 20.72,158.38 -79.31,295.29 -176.44,408.8 -223.46,243.7 -497.04,433.87 -774.47,610.08 99.31,158.37 193.56,319.63 298.89,474.14 389.51,3.13 779.05,1.19 1168.8,1.67 137.15,-241.52 412.19,-343.96 669.14,-401.09 16.37,-127.5 6.49,-256.94 -5.3,-384.45 -15.69,-445.92 -88.24,-894.5 -248.76,-1312.7 -57.37,-139.57 -118.12,-289.25 -246.59,-378.68 -162.45,-125.33 -374.32,-131.85 -569.58,-152.33 -56.65,-1.46 -114.73,-29.89 -131.14,-87.5 -40.48,-101.24 -118.81,-182.46 -211.87,-237.44zm-478.7 3144.86l0 0c0,56.15 0,112.57 -0.24,168.98 425.44,0 850.88,0.71 1276.32,-0.24 0.48,-55.94 0.96,-111.85 1.67,-167.78 -425.91,-1.43 -851.83,0.48 -1277.75,-0.96zm-1036.47 352.39l0 0c-0.48,71.84 -0.48,143.67 3.39,215.51 1111.91,-2.42 2223.82,1.19 3335.75,-2.89 1.43,-69.9 2.17,-139.83 6.02,-209.73 -1115.06,-6.25 -2230.1,-1.43 -3345.16,-2.89z"/>
  <path class="fil0" d="M1649.15 1029.93c101,-76.66 271.17,-127.27 368.31,-18.55 3.13,41.2 8.45,91.34 -20.96,124.35 -49.66,36.41 -108,-11.07 -160.79,8.46 -47.48,12.77 -89.9,37.6 -133.52,59.06 -72.57,-20.25 -112.58,-118.37 -53.04,-173.32z"/>
  <path class="fil0" d="M599.67 1707.73c62.9,-24.35 114.97,18.81 132.32,78.09 2.18,80.28 -111.36,131.13 -162.69,62.69 -56.41,-40.75 -14.95,-110.89 30.37,-140.78z"/>
  <path class="fil1" d="M1672.54 14.18c73.03,-35.43 151.12,3.63 220.54,29.65 168.74,77.13 311.9,203.21 416.04,356.26 206.57,18.57 420.61,54.48 594.65,175.23 147.99,92.07 260.31,234.31 331.9,391.7 198.87,427.59 290.95,897.39 329.26,1364.75 30.87,184.18 3.87,371.7 23.64,556.82 13.25,108.24 -17.36,221.75 -88,305.4 -41.68,48.92 -109.91,54.72 -167.52,71.84 -128.7,30.12 -261.53,60.49 -368.79,142.45 0.24,50.85 -0.24,101.46 -1.93,152.33 254.06,5.06 508.37,-0.72 762.43,2.65 101.22,6.02 216.93,53.26 253.79,155.46 18.34,41.23 9.41,88.24 12.06,132.09 -3.37,143.19 4.35,286.36 -3.37,429.31 -49.89,94.49 -153.31,156.41 -260.57,149.92 -1165.91,0.24 -2331.82,0.48 -3497.73,0 -93.27,2.17 -178.11,-66.29 -212.59,-149.68 -25.56,-108.96 -12.77,-221.52 -15.42,-332.17 3.13,-94.23 -5.3,-196.67 45.55,-280.56 43.14,-68.46 125.33,-107.5 205.62,-104.85 257.9,-0.98 516.06,0.48 773.96,-0.47 -0.71,-62.93 14.95,-124.14 19.05,-186.33 -82.19,-134.5 -171.62,-265.16 -250.69,-401.57 -55.43,-100.29 -51.35,-245.39 48.7,-316.01 169.69,-114.49 351.2,-214.04 506.18,-349.52 -151.38,6.51 -312.61,17.59 -444.7,100.03 -101.75,60.99 -243.7,77.13 -341.08,0 -114.49,-118.34 -239.85,-226.08 -350.95,-348.05 -77.88,-97.38 -115.96,-233.1 -80.53,-354.56 27.96,-142.71 142.71,-244.2 252.86,-328.3 364.69,-278.17 734.7,-550.3 1100.36,-826.77 46.74,-91.84 12.77,-195.98 -1.7,-291.18 0.96,-111.13 89.19,-207.29 188.98,-245.87zm-40.99 264.92l0 0c29.41,123.4 41.47,270.19 -42.9,375.28 -396.03,302.76 -805.54,588.64 -1191.69,904.38 -104.13,72.55 -162.22,215.03 -115.95,336.99 32.06,80.98 108.24,133.29 166.56,195.24 79.31,65.55 137.63,152.81 218.13,216.69 94.99,47.01 175.97,-45.55 262.74,-69.66 178.38,-76.65 376.98,-58.58 560.9,-112.32 125.84,-26.52 239.83,-89.91 364.45,-119.8 -76.16,121.49 -177.17,223.93 -284.67,317.92 -188,152.36 -385.19,292.88 -592.48,417.97 -50.13,25.81 -93.74,78.83 -67.01,137.15 89.43,169.21 206.34,322.02 300.35,488.59 -51.35,106.3 -41.23,225.38 -34.71,339.64 -307.08,0.24 -614.16,-0.48 -921.26,0 -55.43,-5.8 -106.28,39.77 -101.96,96.16 -10.36,151.38 -12.54,303.95 2.65,455.09 67.49,37.84 145.84,26.52 219.84,27.48 1116.97,-0.72 2233.94,0.47 3350.94,-0.48 46.5,3.84 87.73,-19.29 120.27,-50.87 -3.13,-150.4 4.58,-301.31 -2.65,-451.47 -10.6,-54.48 -72.79,-68.2 -118.84,-74.96 -301.54,-4.58 -603.32,3.87 -904.62,-4.1 -8.67,-110.39 16.4,-226.82 -33.49,-330.22 140.51,-165.84 361.79,-208.74 560.89,-262.24 70.86,-9.88 97.86,-88 97.86,-150.9 -3.61,-153.55 -10.84,-306.84 -9.15,-460.39 -40.75,-537.29 -124.64,-1088.54 -382.78,-1569.41 -161.5,-283.71 -507.63,-394.34 -817.6,-383 -47.24,-59.3 -84.87,-125.83 -135.48,-182.01 -102.91,-96.63 -219.58,-180.29 -353.13,-228.72 -56.38,23.13 -132.8,71.09 -115.21,141.97z"/>
  <path class="fil1" d="M1841.49 393.09c93.06,54.98 171.39,136.2 211.87,237.44 16.41,57.61 74.49,86.04 131.14,87.5 195.26,20.48 407.13,27 569.58,152.33 128.47,89.43 189.22,239.11 246.59,378.68 160.52,418.2 233.07,866.78 248.76,1312.7 11.79,127.51 21.67,256.95 5.3,384.45 -256.95,57.13 -531.99,159.57 -669.14,401.09 -389.75,-0.48 -779.29,1.46 -1168.8,-1.67 -105.33,-154.51 -199.58,-315.77 -298.89,-474.14 277.43,-176.21 551.01,-366.38 774.47,-610.08 97.13,-113.51 197.16,-250.42 176.44,-408.8 -4.82,-69.66 -78.11,-124.61 -145.36,-95.2 -215.72,103.65 -440.36,208.5 -683.1,221.04 -172.34,23.61 -349.03,55.67 -502.32,142.21 -87.99,-91.12 -187.78,-171.15 -270.93,-266.59 -61,-73.29 34.23,-143.19 83.86,-189.22 334.59,-252.12 667.95,-505.46 1004.44,-755.17 70.61,-56.42 157.63,-98.36 207.53,-176.69 66.53,-100.77 64.12,-224.64 78.56,-339.88zm-192.34 636.84l0 0c-59.54,54.95 -19.53,153.07 53.04,173.32 43.62,-21.46 86.04,-46.29 133.52,-59.06 52.79,-19.53 111.13,27.95 160.79,-8.46 29.41,-33.01 24.09,-83.15 20.96,-124.35 -97.14,-108.72 -267.31,-58.11 -368.31,18.55zm-1049.48 677.8l0 0c-45.32,29.89 -86.78,100.03 -30.37,140.78 51.33,68.44 164.87,17.59 162.69,-62.69 -17.35,-59.28 -69.42,-102.44 -132.32,-78.09z"/>
  <path class="fil1" d="M1362.79 3537.95c425.92,1.44 851.84,-0.47 1277.75,0.96 -0.71,55.93 -1.19,111.84 -1.67,167.78 -425.44,0.95 -850.88,0.24 -1276.32,0.24 0.24,-56.41 0.24,-112.83 0.24,-168.98z"/>
  <path class="fil1" d="M326.32 3890.34c1115.06,1.46 2230.1,-3.36 3345.16,2.89 -3.85,69.9 -4.59,139.83 -6.02,209.73 -1111.93,4.08 -2223.84,0.47 -3335.75,2.89 -3.87,-71.84 -3.87,-143.67 -3.39,-215.51z"/>
 </g>
</svg>
