<?xml version="1.0" encoding="UTF-8"?>
<!DOCTYPE svg PUBLIC "-//W3C//DTD SVG 1.1//EN" "http://www.w3.org/Graphics/SVG/1.1/DTD/svg11.dtd">
<!-- Creator: CorelDRAW 2019 (64-Bit) -->
<svg xmlns="http://www.w3.org/2000/svg" xml:space="preserve" width="184px" height="206px" version="1.1" style="shape-rendering:geometricPrecision; text-rendering:geometricPrecision; image-rendering:optimizeQuality; fill-rule:evenodd; clip-rule:evenodd"
viewBox="0 0 10964.78 12249.98"
 xmlns:xlink="http://www.w3.org/1999/xlink"
 xmlns:xodm="http://www.corel.com/coreldraw/odm/2003">
 <defs>
  <style type="text/css">
   <![CDATA[
    .fil1 {fill:black;fill-rule:nonzero}
    .fil0 {fill:white;fill-rule:nonzero}
   ]]>
  </style>
 </defs>
 <g id="Layer_x0020_1">
  <metadata id="CorelCorpID_0Corel-Layer"/>
  <path class="fil0" d="M5056.84 796.96c175.78,138.35 370.11,268.77 481.42,470.88 88.63,126.91 119.11,291.45 234.7,401.36 171.57,82.94 363.79,85.75 551.65,92.85 371.59,46.84 751.66,82.3 1098.39,237.58 280.84,155.98 540.34,367.3 698.49,651.66 496.31,907.56 727.51,1929.4 894.09,2941.96 140.46,882.08 167.35,1776.23 149.66,2668.28 -749.49,146.08 -1538.72,468.71 -1946.4,1152.95 -1140.24,26.27 -2282.58,38.34 -3422.82,-4.92 -287.17,-445.32 -575.04,-890.64 -856.58,-1340.18 764.44,-513.37 1553.67,-1014.67 2171.27,-1708.18 320.45,-327.62 611.9,-731.08 645.26,-1203.3 -3.58,-163.14 -74.44,-348.2 -232.6,-418.35 -138.98,-32.66 -277.26,7.09 -397.78,75.84 -662.33,343.91 -1387.02,582.83 -2134.4,632.48 -419.75,45.37 -826.03,179.44 -1206.11,359.51 -258.79,-247.49 -526.86,-485.71 -764.37,-753.77 -160.97,-202.05 70.86,-391.39 212.72,-516.89 1143.05,-894.15 2329.29,-1731.56 3476.62,-2620.1 270.87,-299.95 337.52,-728.91 346.79,-1119.66zm-265.96 1632.33l0 0c-151.76,70.23 -350.3,121.29 -411.26,295.74 -104.22,133.29 21.28,282.18 121.29,371.51 198.53,51.05 375.09,-69.46 555.93,-129.72 134.7,-3.58 292.08,107.03 404.17,-14.18 160.26,-79.43 216.23,-351.01 39.68,-442.44 -192.15,-170.24 -481.49,-145.38 -709.81,-80.91zm-3413.55 2152.8l0 0c-127.6,106.4 -197.13,246.79 -168.06,414.84 58.15,55.27 116.3,112.02 174.45,169.47 204.23,33.99 446.73,-119.18 399.25,-347.5 -49.65,-182.94 -232.59,-253.1 -405.64,-236.81z"/>
  <path class="fil0" d="M3635.83 10011.57c1233.08,51.76 2468.26,12.08 3702.12,25.49 5.62,146.08 8.5,292.85 8.5,439.63 -1240.18,-1.4 -2481.12,2.88 -3720.6,7.8 0.71,-158.09 2.11,-315.47 9.98,-472.92z"/>
  <path class="fil0" d="M605.16 11053.91c3249.71,6.39 6500.89,10.67 9752.78,12.78 10.6,197.83 9.9,395.67 1.4,594.2 -3071.04,-0.7 -6143.49,2.11 -9210.32,10.61 -184.35,17.06 -369.41,17.77 -551.65,-8.5 -6.39,-202.75 -2.11,-406.27 7.79,-609.09z"/>
  <path class="fil1" d="M4405.89 212.72c109.13,-75.14 204.22,-200.64 344.61,-212.72 615.49,180.14 1113.97,638.17 1438.71,1181.32 555.23,12.08 1126.76,95.02 1618.85,368 469.41,250.3 816.83,690.7 1014.67,1179.22 775.75,1741.54 936.01,3671.64 970.07,5554.27 -18.47,202.12 -101.41,477.91 -336.82,506.98 -577.91,135.47 -1208.29,277.27 -1606.83,756.65 158.15,285.76 83.01,619 97.19,930.25 806.93,2.18 1614.57,0 2422.2,0.78 160.26,-2.88 325.51,11.3 472.29,85.04 126.2,63.84 104.92,221.93 123.39,340.4 -2.17,375.1 8.5,751.59 -15.66,1125.98 -87.15,241.1 -377.9,192.22 -580.72,208.51 -2600.23,8.5 -5203.27,24.8 -7802.02,-9.27 -496.38,36.17 -994.17,15.67 -1491.25,18.47 -338.92,-12.07 -694.91,41.86 -1010.45,-111.31 -65.95,-518.36 -114.12,-1066.5 29.07,-1574.88 260.97,-135.48 558.04,-43.97 838.19,-67.35 710.43,-36.17 1421.64,-6.39 2132.15,4.21 6.39,-334.71 -62.36,-691.33 108.5,-997.67 -260.19,-398.48 -513.37,-799.84 -780.66,-1191.93 -119.88,-177.33 -233.3,-489.99 16.99,-611.27 821.12,-502.77 1620.96,-1054.42 2301.69,-1740.07 128.38,-134.06 228.31,-290.75 327.62,-446.02 -542.45,228.31 -1103.37,434.65 -1691.89,494.9 -327.62,17.77 -652.36,83.72 -962.91,186.53 -255.28,93.55 -489.99,333.94 -781.44,226.21 -349.6,-291.45 -670.05,-615.49 -990.58,-938.12 -229.79,-222.7 -319.82,-597.79 -177.26,-891.35 83.65,-207.73 248.9,-365.89 420.46,-502.06 1122.48,-866.49 2267.63,-1703.2 3397.97,-2557.67 336.74,-358.73 125.49,-882.08 153.87,-1316.03zm650.95 584.24l0 0c-9.27,390.75 -75.92,819.71 -346.79,1119.66 -1147.33,888.54 -2333.57,1725.95 -3476.62,2620.1 -141.86,125.5 -373.69,314.84 -212.72,516.89 237.51,268.06 505.58,506.28 764.37,753.77 380.08,-180.07 786.36,-314.14 1206.11,-359.51 747.38,-49.65 1472.07,-288.57 2134.4,-632.48 120.52,-68.75 258.8,-108.5 397.78,-75.84 158.16,70.15 229.02,255.21 232.6,418.35 -33.36,472.22 -324.81,875.68 -645.26,1203.3 -617.6,693.51 -1406.83,1194.81 -2171.27,1708.18 281.54,449.54 569.41,894.86 856.58,1340.18 1140.24,43.26 2282.58,31.19 3422.82,4.92 407.68,-684.24 1196.91,-1006.87 1946.4,-1152.95 17.69,-892.05 -9.2,-1786.2 -149.66,-2668.28 -166.58,-1012.56 -397.78,-2034.4 -894.09,-2941.96 -158.15,-284.36 -417.65,-495.68 -698.49,-651.66 -346.73,-155.28 -726.8,-190.74 -1098.39,-237.58 -187.86,-7.1 -380.08,-9.91 -551.65,-92.85 -115.59,-109.91 -146.07,-274.45 -234.7,-401.36 -111.31,-202.11 -305.64,-332.53 -481.42,-470.88zm-1421.01 9214.61l0 0c-7.87,157.45 -9.27,314.83 -9.98,472.92 1239.48,-4.92 2480.42,-9.2 3720.6,-7.8 0,-146.78 -2.88,-293.55 -8.5,-439.63 -1233.86,-13.41 -2469.04,26.27 -3702.12,-25.49zm-3030.67 1042.34l0 0c-9.9,202.82 -14.18,406.34 -7.79,609.09 182.24,26.27 367.3,25.56 551.65,8.5 3066.83,-8.5 6139.28,-11.31 9210.32,-10.61 8.5,-198.53 9.2,-396.37 -1.4,-594.2 -3251.89,-2.11 -6503.07,-6.39 -9752.78,-12.78z"/>
  <path class="fil1" d="M4790.88 2429.29c228.32,-64.47 517.66,-89.33 709.81,80.91 176.55,91.43 120.58,363.01 -39.68,442.44 -112.09,121.21 -269.47,10.6 -404.17,14.18 -180.84,60.26 -357.4,180.77 -555.93,129.72 -100.01,-89.33 -225.51,-238.22 -121.29,-371.51 60.96,-174.45 259.5,-225.51 411.26,-295.74z"/>
  <path class="fil1" d="M1377.33 4582.09c173.05,-16.29 355.99,53.87 405.64,236.81 47.48,228.32 -195.02,381.49 -399.25,347.5 -58.15,-57.45 -116.3,-114.2 -174.45,-169.47 -29.07,-168.05 40.46,-308.44 168.06,-414.84z"/>
 </g>
</svg>
