<?xml version="1.0" encoding="UTF-8"?>
<!DOCTYPE svg PUBLIC "-//W3C//DTD SVG 1.1//EN" "http://www.w3.org/Graphics/SVG/1.1/DTD/svg11.dtd">
<!-- Creator: CorelDRAW 2019 (64-Bit) -->
<svg xmlns="http://www.w3.org/2000/svg" xml:space="preserve" width="196px" height="213px" version="1.1" style="shape-rendering:geometricPrecision; text-rendering:geometricPrecision; image-rendering:optimizeQuality; fill-rule:evenodd; clip-rule:evenodd"
viewBox="0 0 24.35 26.41"
 xmlns:xlink="http://www.w3.org/1999/xlink"
 xmlns:xodm="http://www.corel.com/coreldraw/odm/2003">
 <defs>
  <style type="text/css">
   <![CDATA[
    .fil1 {fill:black;fill-rule:nonzero}
    .fil0 {fill:white;fill-rule:nonzero}
   ]]>
  </style>
 </defs>
 <g id="Layer_x0020_1">
  <metadata id="CorelCorpID_0Corel-Layer"/>
  <path class="fil0" d="M11.88 0.97c0.28,-0.13 0.62,-0.08 0.82,0.17 0.07,0.39 0.05,0.79 0.05,1.19 0.54,0.08 1.1,-0.05 1.62,0.1 0.47,0.18 0.42,0.89 -0.06,1.03 -0.52,0.05 -1.04,0.01 -1.56,0.02 0.01,0.72 0,1.43 -0.01,2.15 1.02,0.27 1.72,1.19 2.02,2.16 0.22,0.56 0.27,1.16 0.4,1.75 1.71,-1.2 4.11,-1.86 6.05,-0.8 1.28,0.78 2.3,2.2 2.24,3.76 0.03,1.03 -0.37,2.01 -0.9,2.88 -0.45,0.68 -1.01,1.28 -1.43,1.99 -1.19,1.94 -1.5,4.24 -1.79,6.46 -0.65,0.88 -1.77,1.19 -2.8,1.38 -0.81,0.17 -1.64,0.18 -2.47,0.3 -1.99,0.01 -4.01,0.1 -5.99,-0.23 -0.85,-0.14 -1.74,-0.31 -2.48,-0.78 -0.35,-0.26 -0.8,-0.55 -0.75,-1.05 0.08,-1.6 -0.35,-3.18 -0.92,-4.66 -0.63,-1.38 -1.74,-2.48 -2.37,-3.86 -0.52,-1.05 -0.88,-2.29 -0.5,-3.44 0.5,-1.63 1.87,-3.03 3.56,-3.4 0.89,-0.1 1.83,-0.09 2.69,0.21 0.7,0.28 1.36,0.67 2,1.08 0.12,-1.01 0.32,-2.06 0.98,-2.87 0.32,-0.47 0.86,-0.71 1.38,-0.88 0.02,-0.72 0.02,-1.43 0,-2.14 -0.54,-0.06 -1.13,0.1 -1.64,-0.12 -0.41,-0.26 -0.28,-0.81 0.13,-0.98 0.5,-0.07 1.01,-0.02 1.51,-0.05 0.05,-0.46 -0.1,-0.99 0.22,-1.37zm-0.81 6.33l0 0c-0.53,0.84 -0.63,1.87 -0.72,2.83 -0.07,0.37 0.28,0.6 0.46,0.87 0.59,0.74 0.96,1.62 1.38,2.46 0.21,-0.44 0.42,-0.87 0.62,-1.31 0.3,-0.65 0.84,-1.15 1.23,-1.74 0.07,-0.62 -0.09,-1.24 -0.21,-1.84 -0.18,-0.69 -0.5,-1.43 -1.16,-1.78 -0.58,-0.2 -1.26,0 -1.6,0.51zm-8.94 6.03l0 0c0.48,1.7 1.73,2.99 2.58,4.48 2.27,-0.58 4.62,-0.85 6.96,-0.91 -0.12,-2.07 -0.78,-4.18 -2.18,-5.75 -0.93,-1.03 -2.2,-1.81 -3.59,-2.01 -2.2,-0.27 -4.32,2.02 -3.77,4.19zm13.51 -2.79l0 0c-1.96,1.47 -2.85,4 -2.82,6.39 0.71,0.03 1.43,-0.04 2.13,0.1 1.55,0.16 3.1,0.35 4.6,0.81 0.52,-0.98 1.14,-1.89 1.82,-2.74 0.75,-1.01 1.26,-2.38 0.79,-3.62 -0.4,-0.95 -1.2,-1.8 -2.22,-2.05 -1.52,-0.3 -3.05,0.28 -4.3,1.11zm-7.35 7.75l0 0c-1.04,0.19 -2.11,0.27 -3.12,0.58 0.36,1.09 0.69,2.21 0.77,3.37 2.27,-0.96 4.8,-1.01 7.23,-1.01 1.77,0.15 3.6,0.25 5.21,1.07 0.19,-1.14 0.49,-2.26 0.72,-3.4 -3.5,-0.97 -7.22,-1.04 -10.81,-0.61zm-2.21 5.19l0 0c0.97,0.59 2.13,0.67 3.23,0.83 1.82,0.09 3.65,0.08 5.47,0 1.14,-0.12 2.28,-0.29 3.33,-0.77 -0.26,-0.34 -0.69,-0.42 -1.06,-0.58 -2.16,-0.72 -4.47,-0.53 -6.71,-0.54 -1.45,0.15 -2.99,0.28 -4.26,1.06z"/>
  <path class="fil1" d="M11.7 0.1c0.89,-0.37 1.97,0.34 1.95,1.32 0.57,0.06 1.21,0.08 1.6,0.56 0.52,0.61 0.42,1.69 -0.28,2.12 -0.39,0.29 -0.88,0.27 -1.33,0.29 0,0.22 0.01,0.43 0.01,0.65 0.38,0.26 0.79,0.49 1.08,0.86 0.52,0.66 0.84,1.45 1.09,2.24 0.96,-0.53 2.05,-0.7 3.13,-0.81 0.81,-0.08 1.59,0.19 2.35,0.45 1.38,0.68 2.48,1.96 2.9,3.45 0.29,1.22 0.15,2.52 -0.38,3.64 -0.5,1.25 -1.56,2.15 -2.15,3.34 -0.67,1.17 -0.93,2.51 -1.2,3.82 -0.19,1 -0.02,2.21 -0.93,2.91 -1.56,1.18 -3.61,1.27 -5.48,1.45 -2.53,0.03 -5.12,0.12 -7.59,-0.55 -0.88,-0.27 -1.84,-0.65 -2.31,-1.51 -0.38,-0.63 -0.09,-1.38 -0.22,-2.06 -0.22,-1.59 -0.69,-3.2 -1.65,-4.51 -1.07,-1.48 -2.11,-3.1 -2.28,-4.96 -0.12,-1.97 1.1,-3.77 2.68,-4.85 1.77,-1.2 4.14,-0.96 5.97,-0.02 0.24,-1.16 0.91,-2.26 1.96,-2.85 0.28,-0.12 0.14,-0.47 0.18,-0.7 -0.7,0.07 -1.55,-0.16 -1.78,-0.91 -0.34,-0.6 -0.04,-1.35 0.48,-1.73 0.32,-0.35 0.83,-0.25 1.25,-0.27 0.06,-0.58 0.33,-1.23 0.95,-1.37zm0.18 0.87l0 0c-0.32,0.38 -0.17,0.91 -0.22,1.37 -0.5,0.03 -1.01,-0.02 -1.51,0.05 -0.41,0.17 -0.54,0.72 -0.13,0.98 0.51,0.22 1.1,0.06 1.64,0.12 0.02,0.71 0.02,1.42 0,2.14 -0.52,0.17 -1.06,0.41 -1.38,0.88 -0.66,0.81 -0.86,1.86 -0.98,2.87 -0.64,-0.41 -1.3,-0.8 -2,-1.08 -0.86,-0.3 -1.8,-0.31 -2.69,-0.21 -1.69,0.37 -3.06,1.77 -3.56,3.4 -0.38,1.15 -0.02,2.39 0.5,3.44 0.63,1.38 1.74,2.48 2.37,3.86 0.57,1.48 1,3.06 0.92,4.66 -0.05,0.5 0.4,0.79 0.75,1.05 0.74,0.47 1.63,0.64 2.48,0.78 1.98,0.33 4,0.24 5.99,0.23 0.83,-0.12 1.66,-0.13 2.47,-0.3 1.03,-0.19 2.15,-0.5 2.8,-1.38 0.29,-2.22 0.6,-4.52 1.79,-6.46 0.42,-0.71 0.98,-1.31 1.43,-1.99 0.53,-0.87 0.93,-1.85 0.9,-2.88 0.06,-1.56 -0.96,-2.98 -2.24,-3.76 -1.94,-1.06 -4.34,-0.4 -6.05,0.8 -0.13,-0.59 -0.18,-1.19 -0.4,-1.75 -0.3,-0.97 -1,-1.89 -2.02,-2.16 0.01,-0.72 0.02,-1.43 0.01,-2.15 0.52,-0.01 1.04,0.03 1.56,-0.02 0.48,-0.14 0.53,-0.85 0.06,-1.03 -0.52,-0.15 -1.08,-0.02 -1.62,-0.1 0,-0.4 0.02,-0.8 -0.05,-1.19 -0.2,-0.25 -0.54,-0.3 -0.82,-0.17z"/>
  <path class="fil1" d="M11.07 7.3c0.34,-0.51 1.02,-0.71 1.6,-0.51 0.66,0.35 0.98,1.09 1.16,1.78 0.12,0.6 0.28,1.22 0.21,1.84 -0.39,0.59 -0.93,1.09 -1.23,1.74 -0.2,0.44 -0.41,0.87 -0.62,1.31 -0.42,-0.84 -0.79,-1.72 -1.38,-2.46 -0.18,-0.27 -0.53,-0.5 -0.46,-0.87 0.09,-0.96 0.19,-1.99 0.72,-2.83z"/>
  <path class="fil1" d="M2.13 13.33c-0.55,-2.17 1.57,-4.46 3.77,-4.19 1.39,0.2 2.66,0.98 3.59,2.01 1.4,1.57 2.06,3.68 2.18,5.75 -2.34,0.06 -4.69,0.33 -6.96,0.91 -0.85,-1.49 -2.1,-2.78 -2.58,-4.48z"/>
  <path class="fil1" d="M15.64 10.54c1.25,-0.83 2.78,-1.41 4.3,-1.11 1.02,0.25 1.82,1.1 2.22,2.05 0.47,1.24 -0.04,2.61 -0.79,3.62 -0.68,0.85 -1.3,1.76 -1.82,2.74 -1.5,-0.46 -3.05,-0.65 -4.6,-0.81 -0.7,-0.14 -1.42,-0.07 -2.13,-0.1 -0.03,-2.39 0.86,-4.92 2.82,-6.39z"/>
  <path class="fil1" d="M8.29 18.29c3.59,-0.43 7.31,-0.36 10.81,0.61 -0.23,1.14 -0.53,2.26 -0.72,3.4 -1.61,-0.82 -3.44,-0.92 -5.21,-1.07 -2.43,0 -4.96,0.05 -7.23,1.01 -0.08,-1.16 -0.41,-2.28 -0.77,-3.37 1.01,-0.31 2.08,-0.39 3.12,-0.58z"/>
  <path class="fil1" d="M6.08 23.48c1.27,-0.78 2.81,-0.91 4.26,-1.06 2.24,0.01 4.55,-0.18 6.71,0.54 0.37,0.16 0.8,0.24 1.06,0.58 -1.05,0.48 -2.19,0.65 -3.33,0.77 -1.82,0.08 -3.65,0.09 -5.47,0 -1.1,-0.16 -2.26,-0.24 -3.23,-0.83z"/>
 </g>
</svg>
