<?xml version="1.0" encoding="UTF-8"?>
<!DOCTYPE svg PUBLIC "-//W3C//DTD SVG 1.1//EN" "http://www.w3.org/Graphics/SVG/1.1/DTD/svg11.dtd">
<!-- Creator: CorelDRAW 2019 (64-Bit) -->
<svg xmlns="http://www.w3.org/2000/svg" xml:space="preserve" width="183px" height="199px" version="1.1" style="shape-rendering:geometricPrecision; text-rendering:geometricPrecision; image-rendering:optimizeQuality; fill-rule:evenodd; clip-rule:evenodd"
viewBox="0 0 21.35 23.29"
 xmlns:xlink="http://www.w3.org/1999/xlink"
 xmlns:xodm="http://www.corel.com/coreldraw/odm/2003">
 <defs>
  <style type="text/css">
   <![CDATA[
    .fil1 {fill:black;fill-rule:nonzero}
    .fil0 {fill:white;fill-rule:nonzero}
   ]]>
  </style>
 </defs>
 <g id="Layer_x0020_1">
  <metadata id="CorelCorpID_0Corel-Layer"/>
  <path class="fil0" d="M9.89 5.85c0.31,-0.36 0.82,-0.28 1.24,-0.23 1.1,0.7 1.13,2.15 1.28,3.31 -0.77,0.83 -1.32,1.82 -1.74,2.86 -0.33,-0.68 -0.6,-1.38 -1.05,-1.99 -0.2,-0.29 -0.44,-0.55 -0.56,-0.87 -0.04,-1.07 0.06,-2.27 0.83,-3.08z"/>
  <path class="fil0" d="M1.44 9.79c0.52,-1 1.48,-1.83 2.63,-1.97 1.27,-0.1 2.47,0.52 3.43,1.3 1.67,1.49 2.58,3.73 2.61,5.95 -2.18,0.02 -4.35,0.31 -6.46,0.83 -0.79,-1.43 -2.05,-2.64 -2.42,-4.28 -0.2,-0.6 -0.05,-1.26 0.21,-1.83z"/>
  <path class="fil0" d="M13.17 9.83c1.1,-1.12 2.64,-1.85 4.22,-1.8 1.81,0.05 3.31,2.08 2.67,3.81 -0.25,0.94 -0.89,1.67 -1.47,2.43 -0.4,0.51 -0.68,1.09 -1,1.65 -2.04,-0.56 -4.17,-0.83 -6.29,-0.85 0,-1.89 0.59,-3.83 1.87,-5.24z"/>
  <path class="fil0" d="M4.17 16.91c2.54,-0.46 5.11,-0.83 7.7,-0.72 1.79,0.12 3.58,0.36 5.32,0.82 -0.34,1.01 -0.51,2.06 -0.74,3.1 -0.69,-0.26 -1.37,-0.56 -2.1,-0.68 -2.69,-0.36 -5.46,-0.42 -8.12,0.16 -0.5,0.08 -0.95,0.34 -1.45,0.43 0,-1.07 -0.41,-2.08 -0.61,-3.11z"/>
  <path class="fil0" d="M7.83 20.46c0.92,-0.14 1.85,-0.18 2.78,-0.13 1.88,-0.02 3.84,0.02 5.55,0.9 -0.01,0.04 -0.03,0.12 -0.04,0.16 -1.75,0.68 -3.65,0.73 -5.5,0.72 -0.61,0.06 -1.22,0.03 -1.82,-0.06 -1.29,0 -2.65,-0.13 -3.8,-0.76 0.87,-0.48 1.84,-0.78 2.83,-0.83z"/>
  <path class="fil1" d="M10.21 0.18c0.21,-0.3 0.62,-0.14 0.92,-0.13 0.14,0.42 0.18,0.86 0.19,1.3 0.45,0 0.91,-0.03 1.37,0.03 0.43,0.11 0.59,0.78 0.16,1.01 -0.47,0.26 -1.05,0.07 -1.57,0.12 0.01,0.64 0,1.28 0.02,1.92 1.43,0.56 2.07,2.14 2.15,3.58 1.31,-0.66 2.75,-1.32 4.26,-1.13 2.11,0.23 3.83,2.32 3.63,4.44 -0.02,0.6 -0.26,1.17 -0.51,1.71 -0.46,1.05 -1.38,1.81 -1.88,2.85 -0.77,1.38 -1.09,2.95 -1.35,4.5 -0.06,0.52 0.02,1.15 -0.4,1.55 -0.6,0.65 -1.52,0.74 -2.32,1.02 -1.91,0.27 -3.86,0.41 -5.79,0.31 -1.5,-0.21 -3.07,-0.16 -4.46,-0.83 -0.55,-0.29 -1.11,-0.83 -0.95,-1.51 0.03,-1.56 -0.4,-3.12 -1.08,-4.51 -0.86,-1.43 -2.05,-2.72 -2.46,-4.38 -0.68,-2.35 1.2,-4.88 3.51,-5.3 0.77,-0.04 1.55,-0.09 2.28,0.19 0.73,0.2 1.35,0.65 2,1.02 0.08,-1.4 0.66,-3.09 2.16,-3.5 0.03,-0.64 0.01,-1.28 0.01,-1.93 -0.55,-0.07 -1.3,0.23 -1.68,-0.32 -0.11,-0.28 -0.04,-0.68 0.27,-0.81 0.45,-0.06 0.92,-0.01 1.38,-0.03 0.05,-0.39 0.02,-0.79 0.14,-1.17zm-0.32 5.67l0 0c-0.77,0.81 -0.87,2.01 -0.83,3.08 0.12,0.32 0.36,0.58 0.56,0.87 0.45,0.61 0.72,1.31 1.05,1.99 0.42,-1.04 0.97,-2.03 1.74,-2.86 -0.15,-1.16 -0.18,-2.61 -1.28,-3.31 -0.42,-0.05 -0.93,-0.13 -1.24,0.23zm-8.45 3.94l0 0c-0.26,0.57 -0.41,1.23 -0.21,1.83 0.37,1.64 1.63,2.85 2.42,4.28 2.11,-0.52 4.28,-0.81 6.46,-0.83 -0.03,-2.22 -0.94,-4.46 -2.61,-5.95 -0.96,-0.78 -2.16,-1.4 -3.43,-1.3 -1.15,0.14 -2.11,0.97 -2.63,1.97zm11.73 0.04l0 0c-1.28,1.41 -1.87,3.35 -1.87,5.24 2.12,0.02 4.25,0.29 6.29,0.85 0.32,-0.56 0.6,-1.14 1,-1.65 0.58,-0.76 1.22,-1.49 1.47,-2.43 0.64,-1.73 -0.86,-3.76 -2.67,-3.81 -1.58,-0.05 -3.12,0.68 -4.22,1.8zm-9 7.08l0 0c0.2,1.03 0.61,2.04 0.61,3.11 0.5,-0.09 0.95,-0.35 1.45,-0.43 2.66,-0.58 5.43,-0.52 8.12,-0.16 0.73,0.12 1.41,0.42 2.1,0.68 0.23,-1.04 0.4,-2.09 0.74,-3.1 -1.74,-0.46 -3.53,-0.7 -5.32,-0.82 -2.59,-0.11 -5.16,0.26 -7.7,0.72zm3.66 3.55l0 0c-0.99,0.05 -1.96,0.35 -2.83,0.83 1.15,0.63 2.51,0.76 3.8,0.76 0.6,0.09 1.21,0.12 1.82,0.06 1.85,0.01 3.75,-0.04 5.5,-0.72 0.01,-0.04 0.03,-0.12 0.04,-0.16 -1.71,-0.88 -3.67,-0.92 -5.55,-0.9 -0.93,-0.05 -1.86,-0.01 -2.78,0.13z"/>
 </g>
</svg>
