<?xml version="1.0" encoding="UTF-8"?>
<!DOCTYPE svg PUBLIC "-//W3C//DTD SVG 1.1//EN" "http://www.w3.org/Graphics/SVG/1.1/DTD/svg11.dtd">
<!-- Creator: CorelDRAW 2019 (64-Bit) -->
<svg xmlns="http://www.w3.org/2000/svg" xml:space="preserve" width="146px" height="187px" version="1.1" style="shape-rendering:geometricPrecision; text-rendering:geometricPrecision; image-rendering:optimizeQuality; fill-rule:evenodd; clip-rule:evenodd"
viewBox="0 0 23.08 29.46"
 xmlns:xlink="http://www.w3.org/1999/xlink"
 xmlns:xodm="http://www.corel.com/coreldraw/odm/2003">
 <defs>
  <style type="text/css">
   <![CDATA[
    .fil1 {fill:black;fill-rule:nonzero}
    .fil0 {fill:white;fill-rule:nonzero}
   ]]>
  </style>
 </defs>
 <g id="Layer_x0020_1">
  <metadata id="CorelCorpID_0Corel-Layer"/>
  <path class="fil0" d="M10.55 1.3c2.51,-0.87 5.41,1.47 5.26,4.09 0.04,0.81 -0.27,1.57 -0.65,2.27 1.14,0.77 1.98,1.94 2.46,3.22 0.17,0.41 0.11,1.01 -0.39,1.13 -1,0.04 -2,0.05 -2.99,0.01 -0.05,3.16 0.61,6.42 2.29,9.12 0.28,0.4 0.55,0.94 1.09,0.98 1.25,0.19 2.5,0.79 3.18,1.89 0.69,0.99 0.99,2.18 1.15,3.36 0.05,0.43 -0.29,0.96 -0.75,0.94 -5.89,0.01 -11.77,0 -17.66,0 -0.62,-0.01 -1.23,0.04 -1.84,-0.04 -0.41,-0.03 -0.65,-0.48 -0.55,-0.85 0.26,-1.89 1.02,-3.94 2.73,-4.97 0.52,-0.31 1.1,-0.51 1.7,-0.57 0.32,-0.03 0.59,-0.26 0.76,-0.52 1.38,-1.89 2.01,-4.21 2.32,-6.5 0.2,-0.93 0.16,-1.89 0.16,-2.83 -0.99,0.01 -1.99,0.06 -2.97,-0.07 -0.59,-0.45 -0.22,-1.25 0.07,-1.76 0.52,-1.13 1.58,-1.85 2.58,-2.53 -0.38,-0.78 -0.89,-1.56 -0.85,-2.46 -0.13,-1.78 1.28,-3.36 2.9,-3.91zm0.41 1.38l0 0c-1.02,0.33 -1.82,1.26 -1.93,2.34 0.04,0.82 0.49,1.55 0.94,2.21 0.17,0.29 0.44,0.59 0.32,0.95 -0.15,0.48 -0.7,0.57 -1.08,0.81 -0.78,0.37 -1.41,0.97 -1.92,1.64 2.87,0.04 5.74,0.02 8.6,0.01 -0.19,-0.5 -0.53,-0.92 -0.9,-1.31 -0.55,-0.59 -1.56,-0.51 -1.93,-1.31 0.34,-0.66 1,-1.11 1.19,-1.85 0.79,-1.88 -1.35,-4.16 -3.29,-3.49zm-0.64 9.37l0 0c-0.1,3.2 -0.61,6.51 -2.26,9.31 -0.46,0.66 -0.87,1.41 -1.59,1.8 -0.85,0.16 -1.81,0.27 -2.41,0.97 -0.77,0.72 -1.05,1.75 -1.38,2.71 1.6,0.11 3.2,0.04 4.81,0.06 4.31,-0.01 8.62,0.06 12.93,-0.05 -0.25,-1.08 -0.65,-2.27 -1.66,-2.87 -0.79,-0.53 -1.93,-0.2 -2.59,-0.97 -1.44,-1.59 -2.2,-3.66 -2.77,-5.7 -0.43,-1.72 -0.62,-3.5 -0.68,-5.27 -0.8,0 -1.6,0 -2.4,0.01z"/>
  <path class="fil1" d="M6.76 3.54c0.83,-2.37 3.5,-4.03 5.99,-3.41 1.6,0.38 3.07,1.5 3.72,3.03 0.62,1.27 0.56,2.77 0.18,4.11 0.83,1.1 1.79,2.2 2.12,3.58 0.18,0.84 -0.17,1.89 -1.04,2.18 -0.76,0.21 -1.57,0.1 -2.35,0.15 0.11,2.7 0.8,5.46 2.34,7.71 0.74,0.36 1.63,0.38 2.31,0.88 1.67,0.94 2.57,2.8 2.88,4.62 0.07,0.54 0.29,1.11 0.07,1.64 -0.19,0.86 -1.07,1.53 -1.96,1.41 -6.45,-0.01 -12.91,0.01 -19.37,-0.01 -0.91,0.01 -1.54,-0.9 -1.65,-1.72 0.2,-2.6 1.41,-5.43 3.92,-6.54 0.51,-0.3 1.19,-0.23 1.64,-0.6 1.39,-2.2 2.02,-4.81 2.11,-7.38 -0.91,-0.08 -2.01,0.17 -2.74,-0.52 -0.48,-0.52 -0.66,-1.31 -0.43,-1.98 0.38,-1.43 1.42,-2.52 2.53,-3.42 -0.57,-1.15 -0.68,-2.52 -0.27,-3.73zm3.79 -2.24l0 0c-1.62,0.55 -3.03,2.13 -2.9,3.91 -0.04,0.9 0.47,1.68 0.85,2.46 -1,0.68 -2.06,1.4 -2.58,2.53 -0.29,0.51 -0.66,1.31 -0.07,1.76 0.98,0.13 1.98,0.08 2.97,0.07 0,0.94 0.04,1.9 -0.16,2.83 -0.31,2.29 -0.94,4.61 -2.32,6.5 -0.17,0.26 -0.44,0.49 -0.76,0.52 -0.6,0.06 -1.18,0.26 -1.7,0.57 -1.71,1.03 -2.47,3.08 -2.73,4.97 -0.1,0.37 0.14,0.82 0.55,0.85 0.61,0.08 1.22,0.03 1.84,0.04 5.89,0 11.77,0.01 17.66,0 0.46,0.02 0.8,-0.51 0.75,-0.94 -0.16,-1.18 -0.46,-2.37 -1.15,-3.36 -0.68,-1.1 -1.93,-1.7 -3.18,-1.89 -0.54,-0.04 -0.81,-0.58 -1.09,-0.98 -1.68,-2.7 -2.34,-5.96 -2.29,-9.12 0.99,0.04 1.99,0.03 2.99,-0.01 0.5,-0.12 0.56,-0.72 0.39,-1.13 -0.48,-1.28 -1.32,-2.45 -2.46,-3.22 0.38,-0.7 0.69,-1.46 0.65,-2.27 0.15,-2.62 -2.75,-4.96 -5.26,-4.09z"/>
  <path class="fil1" d="M10.96 2.68c1.94,-0.67 4.08,1.61 3.29,3.49 -0.19,0.74 -0.85,1.19 -1.19,1.85 0.37,0.8 1.38,0.72 1.93,1.31 0.37,0.39 0.71,0.81 0.9,1.31 -2.86,0.01 -5.73,0.03 -8.6,-0.01 0.51,-0.67 1.14,-1.27 1.92,-1.64 0.38,-0.24 0.93,-0.33 1.08,-0.81 0.12,-0.36 -0.15,-0.66 -0.32,-0.95 -0.45,-0.66 -0.9,-1.39 -0.94,-2.21 0.11,-1.08 0.91,-2.01 1.93,-2.34z"/>
  <path class="fil1" d="M10.32 12.05c0.8,-0.01 1.6,-0.01 2.4,-0.01 0.06,1.77 0.25,3.55 0.68,5.27 0.57,2.04 1.33,4.11 2.77,5.7 0.66,0.77 1.8,0.44 2.59,0.97 1.01,0.6 1.41,1.79 1.66,2.87 -4.31,0.11 -8.62,0.04 -12.93,0.05 -1.61,-0.02 -3.21,0.05 -4.81,-0.06 0.33,-0.96 0.61,-1.99 1.38,-2.71 0.6,-0.7 1.56,-0.81 2.41,-0.97 0.72,-0.39 1.13,-1.14 1.59,-1.8 1.65,-2.8 2.16,-6.11 2.26,-9.31z"/>
 </g>
</svg>
