<?xml version="1.0" encoding="UTF-8"?>
<!DOCTYPE svg PUBLIC "-//W3C//DTD SVG 1.1//EN" "http://www.w3.org/Graphics/SVG/1.1/DTD/svg11.dtd">
<!-- Creator: CorelDRAW 2019 (64-Bit) -->
<svg xmlns="http://www.w3.org/2000/svg" xml:space="preserve" width="132px" height="174px" version="1.1" style="shape-rendering:geometricPrecision; text-rendering:geometricPrecision; image-rendering:optimizeQuality; fill-rule:evenodd; clip-rule:evenodd"
viewBox="0 0 18.58 24.35"
 xmlns:xlink="http://www.w3.org/1999/xlink"
 xmlns:xodm="http://www.corel.com/coreldraw/odm/2003">
 <defs>
  <style type="text/css">
   <![CDATA[
    .fil1 {fill:black;fill-rule:nonzero}
    .fil0 {fill:white;fill-rule:nonzero}
   ]]>
  </style>
 </defs>
 <g id="Layer_x0020_1">
  <metadata id="CorelCorpID_0Corel-Layer"/>
  <path class="fil0" d="M7.2 3.13c0.23,-0.79 0.91,-1.44 1.7,-1.67 1.51,-0.39 3.13,1.11 2.86,2.65 -0.03,0.66 -0.5,1.17 -0.92,1.65 -0.31,0.34 -0.11,0.96 0.35,1.04 0.87,0.22 1.51,0.9 1.92,1.66 -2.5,0 -5,0.01 -7.49,0 0.63,-0.9 1.64,-1.37 2.57,-1.88 -0.02,-0.33 0.1,-0.71 -0.14,-0.98 -0.5,-0.72 -1.04,-1.55 -0.85,-2.47z"/>
  <path class="fil0" d="M8.31 9.8c0.67,0 1.34,-0.03 2.01,0.06 0.1,3.36 0.79,6.9 2.94,9.6 0.54,0.81 1.65,0.48 2.38,0.97 0.86,0.53 1.34,1.53 1.46,2.51 -5.21,0.07 -10.42,0.04 -15.62,0 0.32,-1.15 0.85,-2.45 2.04,-2.93 0.53,-0.27 1.23,-0.03 1.67,-0.51 1.27,-1.34 2,-3.1 2.47,-4.86 0.27,-1.33 0.55,-2.66 0.54,-4.01 0.01,-0.29 0.06,-0.56 0.11,-0.83z"/>
  <path class="fil1" d="M5.77 3.45c0.06,-1.61 1.37,-3.08 2.94,-3.37 2.01,-0.47 4.08,1.15 4.44,3.11 0.2,0.9 -0.11,1.83 -0.55,2.61 1.07,0.85 1.92,1.99 2.28,3.32 0.02,0.26 -0.21,0.47 -0.37,0.65 -0.93,0.07 -1.87,0.01 -2.8,0.03 0.03,2.69 0.56,5.44 1.92,7.79 0.31,0.47 0.6,1.13 1.25,1.13 1.23,0.16 2.36,0.92 2.94,2.03 0.52,0.98 0.89,2.11 0.72,3.23 -0.22,0.3 -0.61,0.39 -0.96,0.36 -5.53,0.01 -11.06,0.02 -16.59,0 -0.38,0.04 -0.72,-0.09 -0.99,-0.36 -0.04,-1.47 0.54,-2.91 1.39,-4.09 0.56,-0.65 1.31,-1.17 2.17,-1.33 0.32,-0.1 0.76,-0.05 0.96,-0.39 1.1,-1.41 1.65,-3.15 2,-4.88 0.17,-1.14 0.42,-2.3 0.31,-3.46 -0.86,-0.08 -1.74,0.03 -2.6,-0.06 -0.24,-0.22 -0.5,-0.57 -0.31,-0.9 0.4,-1.33 1.45,-2.33 2.64,-2.99 -0.43,-0.74 -0.86,-1.55 -0.79,-2.43zm1.43 -0.32l0 0c-0.19,0.92 0.35,1.75 0.85,2.47 0.24,0.27 0.12,0.65 0.14,0.98 -0.93,0.51 -1.94,0.98 -2.57,1.88 2.49,0.01 4.99,0 7.49,0 -0.41,-0.76 -1.05,-1.44 -1.92,-1.66 -0.46,-0.08 -0.66,-0.7 -0.35,-1.04 0.42,-0.48 0.89,-0.99 0.92,-1.65 0.27,-1.54 -1.35,-3.04 -2.86,-2.65 -0.79,0.23 -1.47,0.88 -1.7,1.67zm1.11 6.67l0 0c-0.05,0.27 -0.1,0.54 -0.11,0.83 0.01,1.35 -0.27,2.68 -0.54,4.01 -0.47,1.76 -1.2,3.52 -2.47,4.86 -0.44,0.48 -1.14,0.24 -1.67,0.51 -1.19,0.48 -1.72,1.78 -2.04,2.93 5.2,0.04 10.41,0.07 15.62,0 -0.12,-0.98 -0.6,-1.98 -1.46,-2.51 -0.73,-0.49 -1.84,-0.16 -2.38,-0.97 -2.15,-2.7 -2.84,-6.24 -2.94,-9.6 -0.67,-0.09 -1.34,-0.06 -2.01,-0.06z"/>
 </g>
</svg>
