<?xml version="1.0" encoding="UTF-8"?>
<!DOCTYPE svg PUBLIC "-//W3C//DTD SVG 1.1//EN" "http://www.w3.org/Graphics/SVG/1.1/DTD/svg11.dtd">
<!-- Creator: CorelDRAW 2019 (64-Bit) -->
<svg xmlns="http://www.w3.org/2000/svg" xml:space="preserve" width="225px" height="211px" version="1.1" style="shape-rendering:geometricPrecision; text-rendering:geometricPrecision; image-rendering:optimizeQuality; fill-rule:evenodd; clip-rule:evenodd"
viewBox="0 0 46.89 43.91"
 xmlns:xlink="http://www.w3.org/1999/xlink"
 xmlns:xodm="http://www.corel.com/coreldraw/odm/2003">
 <defs>
  <style type="text/css">
   <![CDATA[
    .fil1 {fill:black;fill-rule:nonzero}
    .fil0 {fill:white;fill-rule:nonzero}
   ]]>
  </style>
 </defs>
 <g id="Layer_x0020_1">
  <metadata id="CorelCorpID_0Corel-Layer"/>
  <path class="fil0" d="M22.47 1.64c2.2,-0.77 4.75,1.28 4.57,3.58 0,1.24 -0.75,2.37 -1.78,3.03 0.41,2.64 1.06,5.23 1.54,7.86 0.1,0.56 0.24,1.11 0.45,1.64 1.26,-2.83 2.5,-5.68 3.66,-8.55 -0.49,-0.83 -1.05,-1.74 -0.89,-2.75 0.18,-1.69 1.66,-3.36 3.46,-3.24 2.01,-0.24 3.94,1.74 3.73,3.74 -0.01,1.58 -1.29,2.84 -2.69,3.35 0.03,2.89 0.23,5.78 0.22,8.68 1.52,-1.84 2.72,-3.92 4.13,-5.84 -0.28,-0.73 -0.77,-1.42 -0.69,-2.23 -0.09,-1.76 1.4,-3.34 3.1,-3.61 2.48,-0.44 4.84,2.31 3.92,4.69 -0.3,1.23 -1.47,1.85 -2.39,2.56 -0.67,1.92 -1.34,3.83 -1.88,5.79 -0.8,2.56 -1.76,5.07 -2.53,7.63 -0.88,1.63 -1.44,3.39 -2.07,5.12 -0.14,0.36 -0.12,0.75 -0.12,1.13 0,1.78 -0.07,3.57 -0.14,5.36 0,0.77 -0.83,1.04 -1.43,1.28 -7.12,2.02 -14.77,2.06 -21.94,0.26 -0.69,-0.21 -1.67,-0.35 -1.78,-1.21 -0.1,-1.95 -0.05,-3.91 -0.14,-5.87 -0.08,-0.69 -0.46,-1.31 -0.74,-1.93 -0.7,-1.37 -1.23,-2.83 -2.04,-4.14 -0.3,-0.44 -0.35,-0.99 -0.51,-1.48 -1.17,-3.98 -2.17,-8 -3.41,-11.95 -0.98,-0.57 -2.03,-1.21 -2.35,-2.37 -0.92,-2.12 0.92,-4.82 3.22,-4.74 1.43,-0.17 2.88,0.74 3.43,2.05 0.6,1.16 0.3,2.53 -0.26,3.64 1.38,1.94 2.65,3.96 4.07,5.88 0.11,-2.85 0.05,-5.71 0.06,-8.56 -1.1,-0.85 -2.52,-1.89 -2.35,-3.5 -0.22,-2.3 2.37,-4.38 4.57,-3.54 1.26,0.34 2.26,1.46 2.49,2.74 0.43,1.28 -0.36,2.55 -1.13,3.53 1.36,2.72 2.51,5.57 3.9,8.28 0.67,-3.24 1.21,-6.5 1.78,-9.75 -0.54,-0.53 -1.13,-1.05 -1.39,-1.77 -0.87,-1.86 0.35,-4.32 2.35,-4.79zm0.18 1.66l0 0c-1.18,0.48 -1.51,2.27 -0.54,3.11 0.48,0.68 1.4,0.62 2.12,0.45 1.14,-0.4 1.51,-1.96 0.82,-2.9 -0.44,-0.85 -1.58,-0.95 -2.4,-0.66zm-10.15 1.73l0 0c-0.9,0.51 -1.1,1.67 -0.82,2.59 0.4,0.98 1.67,1.31 2.59,0.95 1.09,-0.5 1.49,-2.06 0.72,-2.99 -0.52,-0.83 -1.67,-0.78 -2.49,-0.55zm20.09 0.03l0 0c-0.88,0.64 -1.15,1.94 -0.56,2.87 0.73,0.97 2.47,1.1 3.15,-0.02 0.72,-0.93 0.35,-2.49 -0.75,-2.92 -0.6,-0.1 -1.26,-0.15 -1.84,0.07zm8.71 4.01l0 0c-0.52,0.17 -0.94,0.54 -1.16,1.04 -0.71,1.2 0.42,2.84 1.76,2.8 0.8,-0.1 1.68,-0.56 1.83,-1.42 0.55,-1.4 -1.04,-2.97 -2.43,-2.42zm-37.01 0.14l0 0c-1.21,0.49 -1.53,2.32 -0.54,3.17 0.88,1.04 2.81,0.52 3.17,-0.76 0.08,-0.72 0.1,-1.63 -0.58,-2.08 -0.54,-0.51 -1.38,-0.6 -2.05,-0.33zm18.68 1.61l0 0c-0.65,3.64 -1.32,7.28 -1.96,10.93 -0.41,0.29 -0.89,0.4 -1.38,0.37 -2.02,-3.7 -3.44,-7.7 -5.46,-11.39 -0.08,3.78 0,7.56 -0.04,11.34 0.02,0.81 -1.13,1.33 -1.67,0.69 -2.09,-2.8 -3.88,-5.82 -5.96,-8.64 -0.57,0.54 -0.14,1.28 0,1.91 1.01,3.41 1.87,6.86 2.94,10.25 6.74,-2.94 14.49,-4.1 21.65,-2.06 2.02,0.52 3.82,1.59 5.74,2.37 0.2,-0.81 0.46,-1.6 0.77,-2.37 0.87,-2.48 1.66,-4.99 2.4,-7.52 0.23,-0.86 0.65,-1.67 0.73,-2.56 -0.12,0.08 -0.37,0.25 -0.49,0.34 -1.76,2.59 -3.51,5.21 -5.3,7.79 -0.39,0.67 -1.38,0.83 -1.9,0.23 -0.21,-0.61 -0.19,-1.26 -0.22,-1.9 -0.19,-3.42 0.01,-6.85 -0.13,-10.28 -0.2,0.25 -0.39,0.5 -0.5,0.79 -1.45,3.35 -2.86,6.72 -4.32,10.06 -0.17,0.45 -0.54,0.82 -1.04,0.87 -0.68,-0.18 -0.9,-0.88 -1.03,-1.49 -0.81,-3.82 -1.56,-7.65 -2.37,-11.47 -0.43,0.48 -0.33,1.15 -0.46,1.74zm-12.71 17.19l0 0c0.61,1.32 1.05,2.8 1.93,3.95 2.98,-0.85 6.03,-1.52 9.13,-1.7 1.49,0 2.99,-0.01 4.49,0 3.01,0.26 5.99,0.9 8.81,1.98 0.49,-1.23 0.88,-2.51 1.39,-3.73 -4.31,-2.77 -9.59,-3.78 -14.66,-3.37 -3.82,0.35 -7.59,1.28 -11.09,2.87zm2.44 5.82l0 0c-0.06,1.42 0,2.84 -0.03,4.26 0.64,-0.09 1.28,-0.27 1.91,-0.44 2.44,-0.65 4.96,-0.91 7.47,-1.12 4.09,-0.14 8.19,0.39 12.14,1.45 0.06,-1.29 0.05,-2.58 0.01,-3.88 -0.71,-0.2 -1.4,-0.49 -2.1,-0.72 -6.28,-2 -13.17,-1.54 -19.4,0.45zm2.11 5.73l0 0c1.51,0.61 3.19,0.51 4.77,0.82 2.33,0.11 4.66,0.08 6.98,0.03 1.86,-0.23 3.72,-0.43 5.54,-0.85 -0.55,-0.42 -1.27,-0.38 -1.91,-0.55 -5.08,-0.9 -10.38,-0.82 -15.38,0.55z"/>
  <path class="fil0" d="M18.54 6.46c0.22,0.95 0.93,1.66 1.35,2.48 -0.29,1.37 -0.42,2.77 -0.83,4.11 -0.51,-1.04 -0.97,-2.1 -1.49,-3.13 0.6,-1.05 1.11,-2.22 0.97,-3.46z"/>
  <path class="fil0" d="M10.24 10.74c0.12,0.12 0.36,0.35 0.48,0.47 0.04,0.98 0.05,1.97 0,2.95 -0.34,-0.38 -0.7,-0.79 -0.84,-1.28 0.17,-0.71 0.32,-1.41 0.36,-2.14z"/>
  <path class="fil0" d="M36.04 11.26c0.2,-0.14 0.41,-0.28 0.62,-0.43 0.01,0.74 0.19,1.45 0.51,2.1 -0.33,0.51 -0.66,1.03 -1.05,1.5 0,-1.06 -0.05,-2.11 -0.08,-3.17z"/>
  <path class="fil1" d="M20.27 1.17c1.66,-1.47 4.3,-1.56 6.07,-0.25 0.79,0.64 1.54,1.4 1.85,2.39 0.8,1.93 0.1,4.21 -1.33,5.65 0.29,1.34 0.56,2.67 0.78,4.02 0.69,-1.12 1.05,-2.4 1.63,-3.58 -0.89,-1.49 -0.91,-3.35 -0.21,-4.91 0.74,-1.4 2.1,-2.49 3.69,-2.74 1.09,-0.07 2.24,-0.09 3.21,0.49 1.67,0.86 2.71,2.66 2.78,4.52 1.24,-0.73 2.76,-1.28 4.2,-0.82 1.82,0.36 3.28,1.89 3.75,3.66 0.49,1.5 0.03,3.2 -0.93,4.42 -0.47,0.62 -1.17,1 -1.78,1.46 -0.4,1.05 -0.61,2.16 -1.03,3.21 -0.67,1.69 -1.01,3.49 -1.71,5.17 -0.52,1.48 -0.83,3.03 -1.5,4.46 -0.83,1.75 -1.38,3.61 -2.03,5.42 -0.08,1.82 -0.05,3.65 -0.1,5.46 0.16,1.5 -1.18,2.7 -2.51,3.09 -7.67,2.13 -15.92,2.19 -23.59,0.03 -1.2,-0.25 -2.14,-1.39 -2.09,-2.62 0.01,-1.25 -0.1,-2.49 -0.09,-3.74 -0.01,-0.91 0.03,-1.88 -0.4,-2.71 -0.81,-1.67 -1.5,-3.41 -2.47,-5 -0.96,-3.13 -1.76,-6.31 -2.69,-9.46 -0.33,-1.07 -0.48,-2.21 -0.96,-3.23 -1.74,-0.96 -2.88,-2.9 -2.81,-4.89 0.22,-1.64 1.06,-3.35 2.61,-4.11 1.8,-1.06 4.15,-0.76 5.79,0.46 -0.26,-3.15 3.03,-5.96 6.1,-5.15 1.75,0.38 3.25,1.68 3.79,3.4 0.12,-1.55 0.68,-3.15 1.98,-4.1zm2.2 0.47l0 0c-2,0.47 -3.22,2.93 -2.35,4.79 0.26,0.72 0.85,1.24 1.39,1.77 -0.57,3.25 -1.11,6.51 -1.78,9.75 -1.39,-2.71 -2.54,-5.56 -3.9,-8.28 0.77,-0.98 1.56,-2.25 1.13,-3.53 -0.23,-1.28 -1.23,-2.4 -2.49,-2.74 -2.2,-0.84 -4.79,1.24 -4.57,3.54 -0.17,1.61 1.25,2.65 2.35,3.5 -0.01,2.85 0.05,5.71 -0.06,8.56 -1.42,-1.92 -2.69,-3.94 -4.07,-5.88 0.56,-1.11 0.86,-2.48 0.26,-3.64 -0.55,-1.31 -2,-2.22 -3.43,-2.05 -2.3,-0.08 -4.14,2.62 -3.22,4.74 0.32,1.16 1.37,1.8 2.35,2.37 1.24,3.95 2.24,7.97 3.41,11.95 0.16,0.49 0.21,1.04 0.51,1.48 0.81,1.31 1.34,2.77 2.04,4.14 0.28,0.62 0.66,1.24 0.74,1.93 0.09,1.96 0.04,3.92 0.14,5.87 0.11,0.86 1.09,1 1.78,1.21 7.17,1.8 14.82,1.76 21.94,-0.26 0.6,-0.24 1.43,-0.51 1.43,-1.28 0.07,-1.79 0.14,-3.58 0.14,-5.36 0,-0.38 -0.02,-0.77 0.12,-1.13 0.63,-1.73 1.19,-3.49 2.07,-5.12 0.77,-2.56 1.73,-5.07 2.53,-7.63 0.54,-1.96 1.21,-3.87 1.88,-5.79 0.92,-0.71 2.09,-1.33 2.39,-2.56 0.92,-2.38 -1.44,-5.13 -3.92,-4.69 -1.7,0.27 -3.19,1.85 -3.1,3.61 -0.08,0.81 0.41,1.5 0.69,2.23 -1.41,1.92 -2.61,4 -4.13,5.84 0.01,-2.9 -0.19,-5.79 -0.22,-8.68 1.4,-0.51 2.68,-1.77 2.69,-3.35 0.21,-2 -1.72,-3.98 -3.73,-3.74 -1.8,-0.12 -3.28,1.55 -3.46,3.24 -0.16,1.01 0.4,1.92 0.89,2.75 -1.16,2.87 -2.4,5.72 -3.66,8.55 -0.21,-0.53 -0.35,-1.08 -0.45,-1.64 -0.48,-2.63 -1.13,-5.22 -1.54,-7.86 1.03,-0.66 1.78,-1.79 1.78,-3.03 0.18,-2.3 -2.37,-4.35 -4.57,-3.58zm-3.93 4.82l0 0c0.14,1.24 -0.37,2.41 -0.97,3.46 0.52,1.03 0.98,2.09 1.49,3.13 0.41,-1.34 0.54,-2.74 0.83,-4.11 -0.42,-0.82 -1.13,-1.53 -1.35,-2.48zm-8.3 4.28l0 0c-0.04,0.73 -0.19,1.43 -0.36,2.14 0.14,0.49 0.5,0.9 0.84,1.28 0.05,-0.98 0.04,-1.97 0,-2.95 -0.12,-0.12 -0.36,-0.35 -0.48,-0.47zm25.8 0.52l0 0c0.03,1.06 0.08,2.11 0.08,3.17 0.39,-0.47 0.72,-0.99 1.05,-1.5 -0.32,-0.65 -0.5,-1.36 -0.51,-2.1 -0.21,0.15 -0.42,0.29 -0.62,0.43z"/>
  <path class="fil1" d="M22.65 3.3c0.82,-0.29 1.96,-0.19 2.4,0.66 0.69,0.94 0.32,2.5 -0.82,2.9 -0.72,0.17 -1.64,0.23 -2.12,-0.45 -0.97,-0.84 -0.64,-2.63 0.54,-3.11z"/>
  <path class="fil1" d="M12.5 5.03c0.82,-0.23 1.97,-0.28 2.49,0.55 0.77,0.93 0.37,2.49 -0.72,2.99 -0.92,0.36 -2.19,0.03 -2.59,-0.95 -0.28,-0.92 -0.08,-2.08 0.82,-2.59z"/>
  <path class="fil1" d="M32.59 5.06c0.58,-0.22 1.24,-0.17 1.84,-0.07 1.1,0.43 1.47,1.99 0.75,2.92 -0.68,1.12 -2.42,0.99 -3.15,0.02 -0.59,-0.93 -0.32,-2.23 0.56,-2.87z"/>
  <path class="fil1" d="M41.3 9.07c1.39,-0.55 2.98,1.02 2.43,2.42 -0.15,0.86 -1.03,1.32 -1.83,1.42 -1.34,0.04 -2.47,-1.6 -1.76,-2.8 0.22,-0.5 0.64,-0.87 1.16,-1.04z"/>
  <path class="fil1" d="M4.29 9.21c0.67,-0.27 1.51,-0.18 2.05,0.33 0.68,0.45 0.66,1.36 0.58,2.08 -0.36,1.28 -2.29,1.8 -3.17,0.76 -0.99,-0.85 -0.67,-2.68 0.54,-3.17z"/>
  <path class="fil1" d="M22.97 10.82c0.13,-0.59 0.03,-1.26 0.46,-1.74 0.81,3.82 1.56,7.65 2.37,11.47 0.13,0.61 0.35,1.31 1.03,1.49 0.5,-0.05 0.87,-0.42 1.04,-0.87 1.46,-3.34 2.87,-6.71 4.32,-10.06 0.11,-0.29 0.3,-0.54 0.5,-0.79 0.14,3.43 -0.06,6.86 0.13,10.28 0.03,0.64 0.01,1.29 0.22,1.9 0.52,0.6 1.51,0.44 1.9,-0.23 1.79,-2.58 3.54,-5.2 5.3,-7.79 0.12,-0.09 0.37,-0.26 0.49,-0.34 -0.08,0.89 -0.5,1.7 -0.73,2.56 -0.74,2.53 -1.53,5.04 -2.4,7.52 -0.31,0.77 -0.57,1.56 -0.77,2.37 -1.92,-0.78 -3.72,-1.85 -5.74,-2.37 -7.16,-2.04 -14.91,-0.88 -21.65,2.06 -1.07,-3.39 -1.93,-6.84 -2.94,-10.25 -0.14,-0.63 -0.57,-1.37 0,-1.91 2.08,2.82 3.87,5.84 5.96,8.64 0.54,0.64 1.69,0.12 1.67,-0.69 0.04,-3.78 -0.04,-7.56 0.04,-11.34 2.02,3.69 3.44,7.69 5.46,11.39 0.49,0.03 0.97,-0.08 1.38,-0.37 0.64,-3.65 1.31,-7.29 1.96,-10.93z"/>
  <path class="fil1" d="M10.26 28.01c3.5,-1.59 7.27,-2.52 11.09,-2.87 5.07,-0.41 10.35,0.6 14.66,3.37 -0.51,1.22 -0.9,2.5 -1.39,3.73 -2.82,-1.08 -5.8,-1.72 -8.81,-1.98 -1.5,-0.01 -3,0 -4.49,0 -3.1,0.18 -6.15,0.85 -9.13,1.7 -0.88,-1.15 -1.32,-2.63 -1.93,-3.95z"/>
  <path class="fil1" d="M12.7 33.83c6.23,-1.99 13.12,-2.45 19.4,-0.45 0.7,0.23 1.39,0.52 2.1,0.72 0.04,1.3 0.05,2.59 -0.01,3.88 -3.95,-1.06 -8.05,-1.59 -12.14,-1.45 -2.51,0.21 -5.03,0.47 -7.47,1.12 -0.63,0.17 -1.27,0.35 -1.91,0.44 0.03,-1.42 -0.03,-2.84 0.03,-4.26z"/>
  <path class="fil1" d="M14.81 39.56c5,-1.37 10.3,-1.45 15.38,-0.55 0.64,0.17 1.36,0.13 1.91,0.55 -1.82,0.42 -3.68,0.62 -5.54,0.85 -2.32,0.05 -4.65,0.08 -6.98,-0.03 -1.58,-0.31 -3.26,-0.21 -4.77,-0.82z"/>
 </g>
</svg>
