<?xml version="1.0" encoding="UTF-8"?>
<!DOCTYPE svg PUBLIC "-//W3C//DTD SVG 1.1//EN" "http://www.w3.org/Graphics/SVG/1.1/DTD/svg11.dtd">
<!-- Creator: CorelDRAW 2019 (64-Bit) -->
<svg xmlns="http://www.w3.org/2000/svg" xml:space="preserve" width="211px" height="198px" version="1.1" style="shape-rendering:geometricPrecision; text-rendering:geometricPrecision; image-rendering:optimizeQuality; fill-rule:evenodd; clip-rule:evenodd"
viewBox="0 0 41.77 39.13"
 xmlns:xlink="http://www.w3.org/1999/xlink"
 xmlns:xodm="http://www.corel.com/coreldraw/odm/2003">
 <defs>
  <style type="text/css">
   <![CDATA[
    .fil1 {fill:black;fill-rule:nonzero}
    .fil0 {fill:white;fill-rule:nonzero}
   ]]>
  </style>
 </defs>
 <g id="Layer_x0020_1">
  <metadata id="CorelCorpID_0Corel-Layer"/>
  <path class="fil0" d="M20.64 1.79c1.1,-0.25 2.24,0.86 2.02,1.98 -0.1,1.53 -2.53,2.03 -3.22,0.63 -0.79,-0.96 0.07,-2.43 1.2,-2.61z"/>
  <path class="fil0" d="M10.98 3.41c1.28,-0.29 2.6,1.06 2.07,2.31 -0.35,1.33 -2.43,1.59 -3.09,0.4 -0.69,-0.95 -0.15,-2.46 1.02,-2.71z"/>
  <path class="fil0" d="M30.08 3.47c1.14,-0.44 2.48,0.75 2.24,1.92 -0.1,0.61 -0.57,1.06 -1.04,1.4 -0.85,0.27 -1.89,-0.03 -2.29,-0.87 -0.57,-0.91 0.1,-2.19 1.09,-2.45z"/>
  <path class="fil0" d="M3.17 7.38c1.01,-0.14 2.06,0.78 2.05,1.81 -0.08,0.66 -0.48,1.24 -1.04,1.59 -0.79,0.22 -1.79,0.11 -2.21,-0.69 -0.78,-0.99 0.05,-2.5 1.2,-2.71z"/>
  <path class="fil0" d="M37.83 7.42c0.68,-0.29 1.42,-0.05 1.87,0.51 0.6,0.44 0.42,1.27 0.36,1.9 -0.3,0.44 -0.73,0.78 -1.22,0.98 -0.78,0.21 -1.68,-0.24 -1.99,-0.97 -0.52,-0.86 0.04,-2.12 0.98,-2.42z"/>
  <path class="fil0" d="M20.21 10.78c0.21,-1.05 0.29,-2.15 0.68,-3.16 0.63,3.14 1.24,6.29 1.93,9.42 0.14,0.75 0.22,1.55 0.61,2.23 0.37,0.6 1.35,0.5 1.6,-0.16 1.59,-3.43 2.96,-6.96 4.52,-10.41 0.12,3.31 0.21,6.62 0.17,9.93 0.04,0.53 -0.13,1.17 0.31,1.58 0.31,0.39 0.86,0.27 1.3,0.32 1.94,-2.51 3.57,-5.24 5.44,-7.8 0.16,-0.2 0.33,-0.37 0.53,-0.53 -0.77,2.87 -1.81,5.67 -2.68,8.51 -0.38,1.06 -0.66,2.16 -1.11,3.2 -3.41,-1.85 -7.2,-3.12 -11.1,-3.2 -5.07,-0.29 -10.16,0.84 -14.8,2.87 -1.07,-3.67 -2.06,-7.37 -3.12,-11.04 0.11,-0.06 0.32,-0.19 0.42,-0.25 1.68,2.7 3.55,5.28 5.32,7.92 0.41,0.71 1.9,0.53 1.82,-0.42 0.14,-3.55 0.06,-7.11 0.07,-10.67 1.76,3.34 3.11,6.88 4.84,10.23 0.3,0.74 1.62,0.61 1.72,-0.22 0.58,-2.76 0.97,-5.57 1.53,-8.35z"/>
  <path class="fil0" d="M8.44 25.4c4.14,-1.88 8.71,-2.91 13.27,-2.77 3.84,0.02 7.65,1.13 10.96,3.08 -0.31,1.21 -0.76,2.39 -1.23,3.56 -6.75,-2.73 -14.43,-2.42 -21.28,-0.24 -0.57,-1.21 -1.16,-2.41 -1.72,-3.63z"/>
  <path class="fil0" d="M17.24 29.48c1.98,-0.1 3.98,-0.46 5.97,-0.11 2.71,0.13 5.36,0.88 7.89,1.83 0.01,1.16 0,2.33 -0.01,3.49 -6.6,-1.81 -13.71,-1.87 -20.27,0.15 -0.01,-1.32 -0.05,-2.64 0.03,-3.95 2.07,-0.71 4.22,-1.14 6.39,-1.41z"/>
  <path class="fil0" d="M13.35 36.16c1.66,-0.39 3.35,-0.61 5.04,-0.79 1.74,-0.04 3.48,-0.01 5.22,-0.01 1.78,0.15 3.54,0.43 5.29,0.79 -1.46,0.56 -3.06,0.57 -4.59,0.83 -3.24,0.12 -6.52,0.22 -9.73,-0.35 -0.49,-0.1 -0.99,-0.11 -1.48,-0.17 0.06,-0.07 0.19,-0.22 0.25,-0.3z"/>
  <path class="fil1" d="M17.97 1.67c0.58,-1.08 1.84,-1.64 3.03,-1.67 1.16,0.14 2.37,0.71 2.91,1.81 0.99,1.63 0.3,3.83 -1.24,4.85 0.58,2.91 1.24,5.82 1.73,8.75 0.18,-0.22 0.36,-0.44 0.45,-0.71 0.95,-2.41 2.08,-4.75 3.04,-7.16 -0.64,-1.09 -1.06,-2.38 -0.61,-3.62 0.5,-1.37 1.91,-2.37 3.39,-2.27 1.47,-0.05 2.77,1.07 3.24,2.42 0.14,1 0.16,2.12 -0.45,2.98 -0.43,0.71 -1.18,1.1 -1.88,1.48 0.06,2.69 -0.01,5.38 0.06,8.07 0.41,-0.41 0.71,-0.9 1.03,-1.38 0.86,-1.35 1.87,-2.6 2.69,-3.97 -0.05,-0.77 -0.64,-1.47 -0.52,-2.29 -0.07,-2.06 2.07,-3.78 4.07,-3.35 1.6,0.17 2.94,1.74 2.84,3.35 0.15,1.48 -0.93,2.96 -2.34,3.37 -1.46,4.22 -2.73,8.51 -4.19,12.73 -0.9,1.73 -1.39,3.62 -2.14,5.42 -0.16,1.92 0.03,3.87 -0.09,5.8 -0.11,0.55 -0.56,1.07 -1.11,1.21 -2.72,0.81 -5.53,1.32 -8.36,1.46 -1.84,0.24 -3.71,0.24 -5.55,0.01 -2.71,-0.09 -5.39,-0.62 -8,-1.29 -0.76,-0.12 -1.13,-0.9 -1.14,-1.6 -0.1,-1.72 -0.03,-3.45 -0.09,-5.18 -0.08,-0.55 -0.37,-1.04 -0.58,-1.54 -0.74,-1.4 -1.27,-2.91 -2.13,-4.24 -1.22,-4.08 -2.32,-8.21 -3.47,-12.31 -0.32,-0.63 -1.17,-0.67 -1.58,-1.23 -1.41,-1.38 -1.28,-3.94 0.27,-5.16 1.2,-0.96 3.04,-1.07 4.28,-0.12 1.52,1.04 1.86,3.32 0.83,4.83 1.36,1.76 2.48,3.69 3.8,5.48 0.01,-2.69 0,-5.38 0,-8.06 -1.01,-0.55 -1.97,-1.4 -2.16,-2.6 -0.5,-1.98 1.11,-4.12 3.13,-4.27 1.56,-0.09 3.2,0.92 3.6,2.48 0.49,1.29 -0.08,2.64 -0.86,3.67l-0.01 0.19c1.13,2.52 2.28,5.03 3.46,7.52 0.62,-2.8 1.01,-5.65 1.57,-8.46 0.16,-0.49 -0.21,-0.84 -0.52,-1.15 -1.14,-1.07 -1.23,-2.97 -0.4,-4.25zm2.67 0.12l0 0c-1.13,0.18 -1.99,1.65 -1.2,2.61 0.69,1.4 3.12,0.9 3.22,-0.63 0.22,-1.12 -0.92,-2.23 -2.02,-1.98zm-9.66 1.62l0 0c-1.17,0.25 -1.71,1.76 -1.02,2.71 0.66,1.19 2.74,0.93 3.09,-0.4 0.53,-1.25 -0.79,-2.6 -2.07,-2.31zm19.1 0.06l0 0c-0.99,0.26 -1.66,1.54 -1.09,2.45 0.4,0.84 1.44,1.14 2.29,0.87 0.47,-0.34 0.94,-0.79 1.04,-1.4 0.24,-1.17 -1.1,-2.36 -2.24,-1.92zm-26.91 3.91l0 0c-1.15,0.21 -1.98,1.72 -1.2,2.71 0.42,0.8 1.42,0.91 2.21,0.69 0.56,-0.35 0.96,-0.93 1.04,-1.59 0.01,-1.03 -1.04,-1.95 -2.05,-1.81zm34.66 0.04l0 0c-0.94,0.3 -1.5,1.56 -0.98,2.42 0.31,0.73 1.21,1.18 1.99,0.97 0.49,-0.2 0.92,-0.54 1.22,-0.98 0.06,-0.63 0.24,-1.46 -0.36,-1.9 -0.45,-0.56 -1.19,-0.8 -1.87,-0.51zm-17.62 3.36l0 0c-0.56,2.78 -0.95,5.59 -1.53,8.35 -0.1,0.83 -1.42,0.96 -1.72,0.22 -1.73,-3.35 -3.08,-6.89 -4.84,-10.23 -0.01,3.56 0.07,7.12 -0.07,10.67 0.08,0.95 -1.41,1.13 -1.82,0.42 -1.77,-2.64 -3.64,-5.22 -5.32,-7.92 -0.1,0.06 -0.31,0.19 -0.42,0.25 1.06,3.67 2.05,7.37 3.12,11.04 4.64,-2.03 9.73,-3.16 14.8,-2.87 3.9,0.08 7.69,1.35 11.1,3.2 0.45,-1.04 0.73,-2.14 1.11,-3.2 0.87,-2.84 1.91,-5.64 2.68,-8.51 -0.2,0.16 -0.37,0.33 -0.53,0.53 -1.87,2.56 -3.5,5.29 -5.44,7.8 -0.44,-0.05 -0.99,0.07 -1.3,-0.32 -0.44,-0.41 -0.27,-1.05 -0.31,-1.58 0.04,-3.31 -0.05,-6.62 -0.17,-9.93 -1.56,3.45 -2.93,6.98 -4.52,10.41 -0.25,0.66 -1.23,0.76 -1.6,0.16 -0.39,-0.68 -0.47,-1.48 -0.61,-2.23 -0.69,-3.13 -1.3,-6.28 -1.93,-9.42 -0.39,1.01 -0.47,2.11 -0.68,3.16zm-11.77 14.62l0 0c0.56,1.22 1.15,2.42 1.72,3.63 6.85,-2.18 14.53,-2.49 21.28,0.24 0.47,-1.17 0.92,-2.35 1.23,-3.56 -3.31,-1.95 -7.12,-3.06 -10.96,-3.08 -4.56,-0.14 -9.13,0.89 -13.27,2.77zm8.8 4.08l0 0c-2.17,0.27 -4.32,0.7 -6.39,1.41 -0.08,1.31 -0.04,2.63 -0.03,3.95 6.56,-2.02 13.67,-1.96 20.27,-0.15 0.01,-1.16 0.02,-2.33 0.01,-3.49 -2.53,-0.95 -5.18,-1.7 -7.89,-1.83 -1.99,-0.35 -3.99,0.01 -5.97,0.11zm-3.89 6.68l0 0c-0.06,0.08 -0.19,0.23 -0.25,0.3 0.49,0.06 0.99,0.07 1.48,0.17 3.21,0.57 6.49,0.47 9.73,0.35 1.53,-0.26 3.13,-0.27 4.59,-0.83 -1.75,-0.36 -3.51,-0.64 -5.29,-0.79 -1.74,0 -3.48,-0.03 -5.22,0.01 -1.69,0.18 -3.38,0.4 -5.04,0.79z"/>
 </g>
</svg>
