<?xml version="1.0" encoding="UTF-8"?>
<!DOCTYPE svg PUBLIC "-//W3C//DTD SVG 1.1//EN" "http://www.w3.org/Graphics/SVG/1.1/DTD/svg11.dtd">
<!-- Creator: CorelDRAW 2019 (64-Bit) -->
<svg xmlns="http://www.w3.org/2000/svg" xml:space="preserve" width="164px" height="191px" version="1.1" style="shape-rendering:geometricPrecision; text-rendering:geometricPrecision; image-rendering:optimizeQuality; fill-rule:evenodd; clip-rule:evenodd"
viewBox="0 0 54.8 63.72"
 xmlns:xlink="http://www.w3.org/1999/xlink"
 xmlns:xodm="http://www.corel.com/coreldraw/odm/2003">
 <defs>
  <style type="text/css">
   <![CDATA[
    .fil1 {fill:black;fill-rule:nonzero}
    .fil0 {fill:white;fill-rule:nonzero}
   ]]>
  </style>
 </defs>
 <g id="Layer_x0020_1">
  <metadata id="CorelCorpID_0Corel-Layer"/>
  <path class="fil0" d="M4.46 2.5c2.89,-0.13 5.78,-0.02 8.67,-0.12 0.87,0 1.79,-0.1 2.61,0.28 1.29,1.21 0.89,3.07 0.92,4.64 1.18,0 2.36,0 3.55,-0.01 0.01,-1.39 -0.12,-2.83 0.21,-4.19 0.39,-0.36 0.89,-0.59 1.43,-0.55 3.19,-0.03 6.38,0 9.57,-0.02 0.85,-0.07 1.79,0.21 2.33,0.91 0.57,1.21 0.22,2.58 0.31,3.86 1.17,0 2.36,0 3.54,0 0.19,-1.57 -0.59,-3.77 1.1,-4.7 3.37,-0.33 6.79,-0.16 10.18,-0.13 1.08,-0.07 2,1.02 1.97,2.05 0.04,2.79 -0.01,5.58 0.02,8.37 0.25,1.53 -1.19,2.48 -2.1,3.46 -2.26,1.88 -4.31,3.99 -6.64,5.79 0.03,6.58 0.01,13.16 -0.01,19.73 1.71,1.88 3.52,3.64 5.31,5.43 1.32,1.19 2.45,2.65 4.11,3.42 0.87,0.37 0.83,1.45 0.86,2.24 -0.01,2.35 0.12,4.71 -0.1,7.05 -0.13,1.07 -1.29,1.39 -2.21,1.33 -15.24,-0.01 -30.49,0 -45.73,-0.01 -0.79,0.11 -1.37,-0.46 -1.98,-0.84 -0.03,-2.89 -0.03,-5.77 0.03,-8.66 0.07,-1.09 1.32,-1.38 2.02,-1.99 2.69,-2.48 5.17,-5.21 7.93,-7.61 -0.07,-6.72 0.03,-13.44 -0.05,-20.16 -1.05,-1.21 -2.48,-2.05 -3.64,-3.15 -1.68,-1.53 -3.71,-2.72 -5,-4.6 -0.18,-3.13 -0.03,-6.28 -0.08,-9.42 -0.11,-0.9 0.5,-1.63 0.87,-2.4zm2.24 2.92l0 0c-0.01,2.6 -0.03,5.2 0.01,7.8 2.08,2.17 4.64,3.9 6.9,5.9 0.56,0.69 1.5,0.47 2.28,0.51 8.16,-0.09 16.34,0.13 24.49,-0.13 1.99,-1.59 3.89,-3.29 5.8,-4.95 0.55,-0.67 1.62,-1.11 1.58,-2.09 0.02,-2.35 0.05,-4.69 -0.05,-7.04 -2.38,0 -4.75,-0.07 -7.12,-0.01 -0.23,1.62 0.48,3.56 -0.92,4.79 -2.61,0.07 -5.22,0.13 -7.82,-0.04 -1.32,-1.2 -0.74,-3.07 -0.84,-4.63 -2.57,0.03 -5.13,0 -7.69,0.04 -0.75,1.39 0.53,3.59 -1.12,4.57 -1.83,0.17 -3.67,0.14 -5.5,0.18 -1.01,-0.1 -2.35,0.04 -2.83,-1.07 -0.54,-1.22 -0.3,-2.6 -0.36,-3.9 -2.27,0.08 -4.54,0.05 -6.81,0.07zm8.81 17.3l0 0c-0.02,6 0.04,12 -0.03,18.01 7.8,-0.15 15.61,0.03 23.42,-0.1 0.07,-5.94 0.04,-11.87 0.04,-17.81 -7.81,-0.07 -15.63,0.07 -23.43,-0.1zm-1.09 21.62l0 0c-1.99,2.02 -4.02,3.99 -6.04,5.98 12.63,0.25 25.26,0.14 37.89,0.09 -2.13,-2.25 -4.46,-4.31 -6.6,-6.55 -7.93,-0.02 -15.86,0 -23.78,-0.01 -0.55,-0.01 -1.14,-0.01 -1.47,0.49zm-9.13 9.13l0 0c-0.05,1.59 -0.03,3.17 -0.02,4.76 1.82,0.23 3.65,0.06 5.47,0.11 12.84,-0.07 25.69,0.15 38.53,-0.16 0.01,-1.57 0.02,-3.14 -0.02,-4.7 -14.65,-0.17 -29.3,-0.07 -43.96,-0.01z"/>
  <path class="fil1" d="M1.25 3.4c0.75,-1.55 1.93,-3.53 3.91,-3.35 3.45,0.03 6.9,-0.16 10.34,0.06 1.21,-0.02 2,1.03 2.77,1.83 0.89,-1.03 2.16,-1.88 3.57,-1.79 3.19,0 6.39,0.01 9.59,0 1.62,-0.08 3.14,0.74 4.38,1.74 0.98,-0.89 2.08,-1.98 3.52,-1.84 3.67,0.06 7.37,-0.24 11.03,0.17 1.56,0.7 2.73,2.23 2.82,3.96 0.16,2.63 0.02,5.27 0.06,7.9 -0.07,1.23 0.05,2.61 -0.66,3.67 -2.59,2.78 -5.6,5.12 -8.27,7.82 0.29,5.82 0.16,11.65 0.09,17.47 2.26,2.01 4.39,4.17 6.55,6.3 0.95,1.06 2.61,1.35 3.24,2.73 0.86,1.91 0.53,4.07 0.6,6.1 -0.07,1.88 0.19,3.89 -0.66,5.65 -0.61,1.38 -2.22,1.9 -3.63,1.9 -15.38,-0.01 -30.76,0 -46.14,-0.01 -1.58,-0.03 -3.36,-0.72 -4.04,-2.25 -0.46,-0.75 -0.28,-1.67 -0.31,-2.5 0.04,-2.52 -0.05,-5.04 0.04,-7.56 0.13,-0.86 0.59,-1.7 1.23,-2.3 2.57,-1.59 4.35,-4.11 6.69,-5.99 0.69,-0.78 1.98,-1.3 2,-2.45 0,-5.81 0.06,-11.62 -0.03,-17.43 -1.48,-1.58 -3.29,-2.86 -4.93,-4.28 -1.59,-1.31 -3.58,-2.65 -3.75,-4.9 -0.09,-3.55 -0.08,-7.11 -0.01,-10.65zm3.21 -0.9l0 0c-0.37,0.77 -0.98,1.5 -0.87,2.4 0.05,3.14 -0.1,6.29 0.08,9.42 1.29,1.88 3.32,3.07 5,4.6 1.16,1.1 2.59,1.94 3.64,3.15 0.08,6.72 -0.02,13.44 0.05,20.16 -2.76,2.4 -5.24,5.13 -7.93,7.61 -0.7,0.61 -1.95,0.9 -2.02,1.99 -0.06,2.89 -0.06,5.77 -0.03,8.66 0.61,0.38 1.19,0.95 1.98,0.84 15.24,0.01 30.49,0 45.73,0.01 0.92,0.06 2.08,-0.26 2.21,-1.33 0.22,-2.34 0.09,-4.7 0.1,-7.05 -0.03,-0.79 0.01,-1.87 -0.86,-2.24 -1.66,-0.77 -2.79,-2.23 -4.11,-3.42 -1.79,-1.79 -3.6,-3.55 -5.31,-5.43 0.02,-6.57 0.04,-13.15 0.01,-19.73 2.33,-1.8 4.38,-3.91 6.64,-5.79 0.91,-0.98 2.35,-1.93 2.1,-3.46 -0.03,-2.79 0.02,-5.58 -0.02,-8.37 0.03,-1.03 -0.89,-2.12 -1.97,-2.05 -3.39,-0.03 -6.81,-0.2 -10.18,0.13 -1.69,0.93 -0.91,3.13 -1.1,4.7 -1.18,0 -2.37,0 -3.54,0 -0.09,-1.28 0.26,-2.65 -0.31,-3.86 -0.54,-0.7 -1.48,-0.98 -2.33,-0.91 -3.19,0.02 -6.38,-0.01 -9.57,0.02 -0.54,-0.04 -1.04,0.19 -1.43,0.55 -0.33,1.36 -0.2,2.8 -0.21,4.19 -1.19,0.01 -2.37,0.01 -3.55,0.01 -0.03,-1.57 0.37,-3.43 -0.92,-4.64 -0.82,-0.38 -1.74,-0.28 -2.61,-0.28 -2.89,0.1 -5.78,-0.01 -8.67,0.12z"/>
  <path class="fil1" d="M6.7 5.42c2.27,-0.02 4.54,0.01 6.81,-0.07 0.06,1.3 -0.18,2.68 0.36,3.9 0.48,1.11 1.82,0.97 2.83,1.07 1.83,-0.04 3.67,-0.01 5.5,-0.18 1.65,-0.98 0.37,-3.18 1.12,-4.57 2.56,-0.04 5.12,-0.01 7.69,-0.04 0.1,1.56 -0.48,3.43 0.84,4.63 2.6,0.17 5.21,0.11 7.82,0.04 1.4,-1.23 0.69,-3.17 0.92,-4.79 2.37,-0.06 4.74,0.01 7.12,0.01 0.1,2.35 0.07,4.69 0.05,7.04 0.04,0.98 -1.03,1.42 -1.58,2.09 -1.91,1.66 -3.81,3.36 -5.8,4.95 -8.15,0.26 -16.33,0.04 -24.49,0.13 -0.78,-0.04 -1.72,0.18 -2.28,-0.51 -2.26,-2 -4.82,-3.73 -6.9,-5.9 -0.04,-2.6 -0.02,-5.2 -0.01,-7.8z"/>
  <path class="fil1" d="M15.51 22.72c7.8,0.17 15.62,0.03 23.43,0.1 0,5.94 0.03,11.87 -0.04,17.81 -7.81,0.13 -15.62,-0.05 -23.42,0.1 0.07,-6.01 0.01,-12.01 0.03,-18.01z"/>
  <path class="fil1" d="M14.42 44.34c0.33,-0.5 0.92,-0.5 1.47,-0.49 7.92,0.01 15.85,-0.01 23.78,0.01 2.14,2.24 4.47,4.3 6.6,6.55 -12.63,0.05 -25.26,0.16 -37.89,-0.09 2.02,-1.99 4.05,-3.96 6.04,-5.98z"/>
  <path class="fil1" d="M5.29 53.47c14.66,-0.06 29.31,-0.16 43.96,0.01 0.04,1.56 0.03,3.13 0.02,4.7 -12.84,0.31 -25.69,0.09 -38.53,0.16 -1.82,-0.05 -3.65,0.12 -5.47,-0.11 -0.01,-1.59 -0.03,-3.17 0.02,-4.76z"/>
 </g>
</svg>
