<?xml version="1.0" encoding="UTF-8"?>
<!DOCTYPE svg PUBLIC "-//W3C//DTD SVG 1.1//EN" "http://www.w3.org/Graphics/SVG/1.1/DTD/svg11.dtd">
<!-- Creator: CorelDRAW 2019 (64-Bit) -->
<svg xmlns="http://www.w3.org/2000/svg" xml:space="preserve" width="151px" height="178px" version="1.1" style="shape-rendering:geometricPrecision; text-rendering:geometricPrecision; image-rendering:optimizeQuality; fill-rule:evenodd; clip-rule:evenodd"
viewBox="0 0 45.2 53.18"
 xmlns:xlink="http://www.w3.org/1999/xlink"
 xmlns:xodm="http://www.corel.com/coreldraw/odm/2003">
 <defs>
  <style type="text/css">
   <![CDATA[
    .fil1 {fill:black;fill-rule:nonzero}
    .fil0 {fill:white;fill-rule:nonzero}
   ]]>
  </style>
 </defs>
 <g id="Layer_x0020_1">
  <metadata id="CorelCorpID_0Corel-Layer"/>
  <path class="fil0" d="M4.18 2.91c2.01,0.01 4.02,-0.03 6.04,0.03 0.16,1.41 -0.53,3.54 1.16,4.23 2.2,0.2 4.44,0.03 6.65,-0.01 1.61,-0.62 0.78,-2.81 1.1,-4.13 2.17,-0.01 4.36,-0.17 6.53,0.07 0.6,1.27 -0.23,3.07 1.01,4.15 2.13,-0.08 4.27,0.04 6.4,-0.03 0.49,0.01 0.9,-0.31 1.34,-0.51 0.08,-1.26 0.23,-2.53 0.34,-3.79 2.05,-0.02 4.11,-0.01 6.16,-0.01 0,2.23 0.01,4.45 0,6.68 -2.18,1.9 -4.22,3.99 -6.53,5.73 -2.19,0.27 -4.45,0 -6.66,0.08 -5.66,-0.06 -11.32,0.1 -16.97,-0.08 -2.14,-1.94 -4.53,-3.61 -6.55,-5.67 -0.06,-2.25 0,-4.49 -0.02,-6.74z"/>
  <path class="fil0" d="M12.03 18.47c7.01,0.01 14.02,0.03 21.04,0.01 0,5.28 0,10.55 -0.01,15.83 -7.01,0.02 -14.02,0.03 -21.03,-0.01 0,-5.28 0,-10.55 0,-15.83z"/>
  <path class="fil0" d="M10.5 38.47c0.47,-0.38 0.84,-1.06 1.54,-1.01 7.01,0.01 14.03,0 21.05,0.01 1.11,-0.15 1.55,1.06 2.27,1.66 1.37,1.28 2.71,2.6 3.98,3.99 -11.17,-0.01 -22.34,0.09 -33.5,-0.09 1.53,-1.54 3.16,-2.99 4.66,-4.56z"/>
  <path class="fil0" d="M3.06 46.07c13.07,0 26.14,-0.04 39.2,0 0,1.34 0.01,2.67 0.04,4 -2.03,0.1 -4.06,0 -6.08,0.22 -5.33,-0.22 -10.66,-0.01 -15.99,-0.06 -5.71,-0.06 -11.41,0.07 -17.12,-0.04 -0.09,-1.37 -0.05,-2.75 -0.05,-4.12z"/>
  <path class="fil1" d="M2.12 0.09c3.18,-0.06 6.36,-0.15 9.54,-0.03 0.71,-0.06 1.08,0.64 1.39,1.16 0.11,1.03 0.03,2.08 0.05,3.12 0.97,0 1.95,-0.01 2.93,0 0.09,-1.18 -0.2,-2.45 0.3,-3.57 0.23,-0.7 1.13,-0.61 1.72,-0.7 2.75,-0.02 5.51,-0.02 8.26,0 0.96,-0.05 1.86,0.38 2.49,1.08 -0.02,1.06 -0.01,2.13 -0.02,3.19 0.96,0 1.92,-0.01 2.88,0 0.12,-1.47 -0.5,-3.42 1.16,-4.23 3.05,-0.17 6.13,-0.11 9.18,-0.06 0.93,-0.09 1.9,0.81 1.77,1.76 -0.06,3.05 0.11,6.12 -0.09,9.17 -1.36,1.64 -3.23,2.74 -4.65,4.32 -1.14,1.21 -3.3,2.03 -3.12,3.99 0.03,5.44 -0.01,10.87 0.02,16.3 1.51,1.39 2.91,2.88 4.44,4.25 1.31,1.17 2.26,2.84 3.98,3.48 0.54,0.2 0.92,0.73 0.84,1.32 -0.03,2.47 0.08,4.95 -0.05,7.43 -0.27,1.25 -1.82,1.05 -2.78,1.09 -13.21,-0.01 -26.42,0.08 -39.63,-0.03 -1.05,-0.02 -2.63,-0.12 -2.66,-1.51 -0.12,-2.63 -0.12,-5.29 0.25,-7.91 3.34,-2.23 5.87,-5.43 8.85,-8.08 0.02,-5.91 -0.01,-11.83 0.02,-17.74 -1.41,-1.22 -2.85,-2.4 -4.25,-3.63 -1.22,-1.04 -2.65,-1.9 -3.57,-3.23 -0.11,-3.06 -0.01,-6.13 -0.05,-9.19 -0.1,-0.71 0.45,-1.21 0.8,-1.75zm2.06 2.82l0 0c0.02,2.25 -0.04,4.49 0.02,6.74 2.02,2.06 4.41,3.73 6.55,5.67 5.65,0.18 11.31,0.02 16.97,0.08 2.21,-0.08 4.47,0.19 6.66,-0.08 2.31,-1.74 4.35,-3.83 6.53,-5.73 0.01,-2.23 0,-4.45 0,-6.68 -2.05,0 -4.11,-0.01 -6.16,0.01 -0.11,1.26 -0.26,2.53 -0.34,3.79 -0.44,0.2 -0.85,0.52 -1.34,0.51 -2.13,0.07 -4.27,-0.05 -6.4,0.03 -1.24,-1.08 -0.41,-2.88 -1.01,-4.15 -2.17,-0.24 -4.36,-0.08 -6.53,-0.07 -0.32,1.32 0.51,3.51 -1.1,4.13 -2.21,0.04 -4.45,0.21 -6.65,0.01 -1.69,-0.69 -1,-2.82 -1.16,-4.23 -2.02,-0.06 -4.03,-0.02 -6.04,-0.03zm7.85 15.56l0 0c0,5.28 0,10.55 0,15.83 7.01,0.04 14.02,0.03 21.03,0.01 0.01,-5.28 0.01,-10.55 0.01,-15.83 -7.02,0.02 -14.03,0 -21.04,-0.01zm-1.53 20l0 0c-1.5,1.57 -3.13,3.02 -4.66,4.56 11.16,0.18 22.33,0.08 33.5,0.09 -1.27,-1.39 -2.61,-2.71 -3.98,-3.99 -0.72,-0.6 -1.16,-1.81 -2.27,-1.66 -7.02,-0.01 -14.04,0 -21.05,-0.01 -0.7,-0.05 -1.07,0.63 -1.54,1.01zm-7.44 7.6l0 0c0,1.37 -0.04,2.75 0.05,4.12 5.71,0.11 11.41,-0.02 17.12,0.04 5.33,0.05 10.66,-0.16 15.99,0.06 2.02,-0.22 4.05,-0.12 6.08,-0.22 -0.03,-1.33 -0.04,-2.66 -0.04,-4 -13.06,-0.04 -26.13,0 -39.2,0z"/>
 </g>
</svg>
